<svg xmlns="http://www.w3.org/2000/svg" xmlns:xlink="http://www.w3.org/1999/xlink" width="500" zoomAndPan="magnify" viewBox="0 0 375 374.999991" height="500" preserveAspectRatio="xMidYMid meet" version="1.0"><defs><clipPath id="2e4f1692f1"><path d="M 103 117 L 150 117 L 150 164 L 103 164 Z M 103 117 " clip-rule="nonzero"/></clipPath><clipPath id="602039e05d"><path d="M 93.164062 127.621094 L 130.792969 100.304688 L 158.992188 139.148438 L 121.359375 166.464844 Z M 93.164062 127.621094 " clip-rule="nonzero"/></clipPath><clipPath id="07fbabde8e"><path d="M 93.164062 127.621094 L 130.792969 100.304688 L 158.992188 139.148438 L 121.359375 166.464844 Z M 93.164062 127.621094 " clip-rule="nonzero"/></clipPath><clipPath id="763cc4711f"><path d="M 105 116 L 266 116 L 266 241 L 105 241 Z M 105 116 " clip-rule="nonzero"/></clipPath><clipPath id="9a9bc1f9dd"><path d="M 204.730469 290.679688 L 83.875 201.828125 L 170.0625 84.601562 L 290.914062 173.449219 Z M 204.730469 290.679688 " clip-rule="nonzero"/></clipPath><clipPath id="f89d276113"><path d="M 204.730469 290.679688 L 83.875 201.828125 L 170.0625 84.601562 L 290.914062 173.449219 Z M 204.730469 290.679688 " clip-rule="nonzero"/></clipPath><clipPath id="df8b99d617"><path d="M 103 120 L 146 120 L 146 165 L 103 165 Z M 103 120 " clip-rule="nonzero"/></clipPath><clipPath id="db021d3ee5"><path d="M 93.574219 128.871094 L 131.019531 106.734375 L 153.539062 144.824219 L 116.089844 166.960938 Z M 93.574219 128.871094 " clip-rule="nonzero"/></clipPath><clipPath id="42b3f0a2c3"><path d="M 93.574219 128.871094 L 131.019531 106.734375 L 153.539062 144.824219 L 116.089844 166.960938 Z M 93.574219 128.871094 " clip-rule="nonzero"/></clipPath><clipPath id="6dcd2ac19b"><path d="M 93.574219 128.871094 L 131.019531 106.734375 L 153.539062 144.824219 L 116.089844 166.960938 Z M 93.574219 128.871094 " clip-rule="nonzero"/></clipPath><clipPath id="c2367f4598"><path d="M 101 120 L 261 120 L 261 245 L 101 245 Z M 101 120 " clip-rule="nonzero"/></clipPath><clipPath id="3013498f44"><path d="M 200.390625 294.871094 L 79.539062 206.019531 L 165.722656 88.792969 L 286.578125 177.640625 Z M 200.390625 294.871094 " clip-rule="nonzero"/></clipPath><clipPath id="4127e18ae0"><path d="M 200.390625 294.871094 L 79.539062 206.019531 L 165.722656 88.792969 L 286.578125 177.640625 Z M 200.390625 294.871094 " clip-rule="nonzero"/></clipPath><clipPath id="993adc853a"><path d="M 210 106 L 257 106 L 257 152 L 210 152 Z M 210 106 " clip-rule="nonzero"/></clipPath><clipPath id="3f5ac97c56"><path d="M 245.125 96.289062 L 272.6875 132.808594 L 235.570312 160.820312 L 208.011719 124.304688 Z M 245.125 96.289062 " clip-rule="nonzero"/></clipPath><clipPath id="a337770f5a"><path d="M 245.125 96.289062 L 272.6875 132.808594 L 235.570312 160.820312 L 208.011719 124.304688 Z M 245.125 96.289062 " clip-rule="nonzero"/></clipPath><clipPath id="cdf9a53df7"><path d="M 209 111 L 256 111 L 256 158 L 209 158 Z M 209 111 " clip-rule="nonzero"/></clipPath><clipPath id="49ef71f3af"><path d="M 243.707031 100.816406 L 272.179688 137.578125 L 234.824219 166.511719 L 206.351562 129.75 Z M 243.707031 100.816406 " clip-rule="nonzero"/></clipPath><clipPath id="cf3e99bb58"><path d="M 243.707031 100.816406 L 272.179688 137.578125 L 234.824219 166.511719 L 206.351562 129.75 Z M 243.707031 100.816406 " clip-rule="nonzero"/></clipPath><clipPath id="227abe6602"><path d="M 243.707031 100.816406 L 272.179688 137.578125 L 234.824219 166.511719 L 206.351562 129.75 Z M 243.707031 100.816406 " clip-rule="nonzero"/></clipPath><clipPath id="10ef6736c7"><path d="M 137.203125 154.46875 L 169 154.46875 L 169 187 L 137.203125 187 Z M 137.203125 154.46875 " clip-rule="nonzero"/></clipPath><clipPath id="5f1e895bb1"><path d="M 140.21875 158.023438 L 169 158.023438 L 169 187 L 140.21875 187 Z M 140.21875 158.023438 " clip-rule="nonzero"/></clipPath><clipPath id="7836eec08f"><path d="M 191.5 154.300781 L 223 154.300781 L 223 187 L 191.5 187 Z M 191.5 154.300781 " clip-rule="nonzero"/></clipPath><clipPath id="42ab0af530"><path d="M 191.5 158.023438 L 220 158.023438 L 220 187 L 191.5 187 Z M 191.5 158.023438 " clip-rule="nonzero"/></clipPath><clipPath id="5d2cb10ba8"><path d="M 194.699219 155.367188 L 217.949219 155.367188 L 217.949219 178.617188 L 194.699219 178.617188 Z M 194.699219 155.367188 " clip-rule="nonzero"/></clipPath><clipPath id="99e245a058"><path d="M 139.582031 154.75 L 162 154.75 L 162 178 L 139.582031 178 Z M 139.582031 154.75 " clip-rule="nonzero"/></clipPath><clipPath id="5192280144"><path d="M 110 127 L 139 127 L 139 156 L 110 156 Z M 110 127 " clip-rule="nonzero"/></clipPath><clipPath id="7fec5eaa47"><path d="M 103.441406 132.4375 L 128.777344 117.820312 L 143.394531 143.15625 L 118.058594 157.773438 Z M 103.441406 132.4375 " clip-rule="nonzero"/></clipPath><clipPath id="e5934e0777"><path d="M 103.441406 132.4375 L 128.777344 117.820312 L 143.394531 143.15625 L 118.058594 157.773438 Z M 103.441406 132.4375 " clip-rule="nonzero"/></clipPath><clipPath id="6fd705e281"><path d="M 220 121 L 250 121 L 250 150 L 220 150 Z M 220 121 " clip-rule="nonzero"/></clipPath><clipPath id="0a05f4834a"><path d="M 242.816406 114.386719 L 259.785156 138.210938 L 235.964844 155.179688 L 218.992188 131.355469 Z M 242.816406 114.386719 " clip-rule="nonzero"/></clipPath><clipPath id="8365370563"><path d="M 242.816406 114.386719 L 259.785156 138.210938 L 235.964844 155.179688 L 218.992188 131.355469 Z M 242.816406 114.386719 " clip-rule="nonzero"/></clipPath><clipPath id="a528414d8b"><path d="M 171 186 L 192 186 L 192 202 L 171 202 Z M 171 186 " clip-rule="nonzero"/></clipPath><clipPath id="7f2cf0bc7e"><path d="M 183.179688 207.984375 L 169.230469 196.609375 L 180.605469 182.65625 L 194.554688 194.03125 Z M 183.179688 207.984375 " clip-rule="nonzero"/></clipPath><clipPath id="01b445ff08"><path d="M 183.179688 207.984375 L 169.230469 196.609375 L 180.605469 182.65625 L 194.554688 194.03125 Z M 183.179688 207.984375 " clip-rule="nonzero"/></clipPath><clipPath id="48dbf0edbb"><path d="M 174 190 L 189 190 L 189 202 L 174 202 Z M 174 190 " clip-rule="nonzero"/></clipPath><clipPath id="33f86f0b32"><path d="M 182.785156 206.023438 L 172.324219 197.492188 L 180.378906 187.609375 L 190.84375 196.140625 Z M 182.785156 206.023438 " clip-rule="nonzero"/></clipPath><clipPath id="36d20e042d"><path d="M 182.785156 206.023438 L 172.324219 197.492188 L 180.378906 187.609375 L 190.84375 196.140625 Z M 182.785156 206.023438 " clip-rule="nonzero"/></clipPath><clipPath id="0742182f99"><path d="M 102 181 L 128 181 L 128 194 L 102 194 Z M 102 181 " clip-rule="nonzero"/></clipPath><clipPath id="2e3a73d617"><path d="M 130.328125 192.117188 L 102.976562 196.796875 L 100.699219 183.492188 L 128.050781 178.8125 Z M 130.328125 192.117188 " clip-rule="nonzero"/></clipPath><clipPath id="82dc6413ef"><path d="M 130.328125 192.117188 L 102.976562 196.796875 L 100.699219 183.492188 L 128.050781 178.8125 Z M 130.328125 192.117188 " clip-rule="nonzero"/></clipPath><clipPath id="e2eb0c5fa8"><path d="M 64 170 L 122 170 L 122 196 L 64 196 Z M 64 170 " clip-rule="nonzero"/></clipPath><clipPath id="f46f081f48"><path d="M 67.617188 170.035156 L 121.855469 181.804688 L 118.835938 195.730469 L 64.597656 183.960938 Z M 67.617188 170.035156 " clip-rule="nonzero"/></clipPath><clipPath id="289d6f9176"><path d="M 51.640625 197.585938 L 69.851562 88.089844 L 161.59375 103.347656 L 143.378906 212.84375 Z M 51.640625 197.585938 " clip-rule="nonzero"/></clipPath><clipPath id="f915ebe56a"><path d="M 64 169 L 122 169 L 122 196 L 64 196 Z M 64 169 " clip-rule="nonzero"/></clipPath><clipPath id="367def3ae8"><path d="M 67.617188 169.3125 L 121.855469 181.085938 L 118.835938 195.011719 L 64.597656 183.242188 Z M 67.617188 169.3125 " clip-rule="nonzero"/></clipPath><clipPath id="dfcd3e50d4"><path d="M 63.964844 186.75 L 66.917969 168.996094 L 122.40625 178.222656 L 119.453125 195.980469 Z M 63.964844 186.75 " clip-rule="nonzero"/></clipPath><clipPath id="98e57aa4f5"><path d="M 51.648438 196.851562 L 69.863281 87.355469 L 161.601562 102.617188 L 143.390625 212.113281 Z M 51.648438 196.851562 " clip-rule="nonzero"/></clipPath><clipPath id="4e5554c038"><path d="M 101 197 L 127 197 L 127 210 L 101 210 Z M 101 197 " clip-rule="nonzero"/></clipPath><clipPath id="2e5543d1fa"><path d="M 130.328125 205.171875 L 104.886719 216.253906 L 99.496094 203.875 L 124.9375 192.796875 Z M 130.328125 205.171875 " clip-rule="nonzero"/></clipPath><clipPath id="760e5ad441"><path d="M 130.328125 205.171875 L 104.886719 216.253906 L 99.496094 203.875 L 124.9375 192.796875 Z M 130.328125 205.171875 " clip-rule="nonzero"/></clipPath><clipPath id="32173b06fe"><path d="M 62 197 L 118 197 L 118 213 L 62 213 Z M 62 197 " clip-rule="nonzero"/></clipPath><clipPath id="de0a30e091"><path d="M 62.789062 198.332031 L 116.78125 197.265625 L 117.0625 211.511719 L 63.070312 212.578125 Z M 62.789062 198.332031 " clip-rule="nonzero"/></clipPath><clipPath id="f19f8fd8e9"><path d="M 53.824219 228.152344 L 46.367188 119.660156 L 136.90625 113.4375 L 144.359375 221.929688 Z M 53.824219 228.152344 " clip-rule="nonzero"/></clipPath><clipPath id="d7ce3f6a2c"><path d="M 62 196 L 118 196 L 118 213 L 62 213 Z M 62 196 " clip-rule="nonzero"/></clipPath><clipPath id="7807b72a1e"><path d="M 62.839844 197.996094 L 116.8125 196.351562 L 117.246094 210.59375 L 63.273438 212.238281 Z M 62.839844 197.996094 " clip-rule="nonzero"/></clipPath><clipPath id="c249a63499"><path d="M 62.960938 215.175781 L 61.59375 197.980469 L 117.667969 193.523438 L 119.035156 210.71875 Z M 62.960938 215.175781 " clip-rule="nonzero"/></clipPath><clipPath id="213804f6cd"><path d="M 54.175781 227.871094 L 45.558594 119.464844 L 136.023438 112.273438 L 144.640625 220.683594 Z M 54.175781 227.871094 " clip-rule="nonzero"/></clipPath><clipPath id="e09838cb7f"><path d="M 109 210 L 136 210 L 136 227 L 109 227 Z M 109 210 " clip-rule="nonzero"/></clipPath><clipPath id="f8bc755510"><path d="M 139.578125 217.300781 L 115.5625 233.996094 L 107.429688 222.296875 L 131.445312 205.601562 Z M 139.578125 217.300781 " clip-rule="nonzero"/></clipPath><clipPath id="514e3f8e6a"><path d="M 139.578125 217.300781 L 115.5625 233.996094 L 107.429688 222.296875 L 131.445312 205.601562 Z M 139.578125 217.300781 " clip-rule="nonzero"/></clipPath><clipPath id="86953f3e43"><path d="M 72 210 L 129 210 L 129 249 L 72 249 Z M 72 210 " clip-rule="nonzero"/></clipPath><clipPath id="89bb96bbd2"><path d="M 72.832031 236.058594 L 122.050781 210.40625 L 128.636719 223.042969 L 79.417969 248.695312 Z M 72.832031 236.058594 " clip-rule="nonzero"/></clipPath><clipPath id="61f1dbfa0c"><path d="M 78.175781 267.457031 L 22.125 171.648438 L 102.398438 124.6875 L 158.449219 220.496094 Z M 78.175781 267.457031 " clip-rule="nonzero"/></clipPath><clipPath id="3657073c68"><path d="M 73 209 L 129 209 L 129 248 L 73 248 Z M 73 209 " clip-rule="nonzero"/></clipPath><clipPath id="6d67396c27"><path d="M 73.167969 234.664062 L 122.382812 209.011719 L 128.96875 221.648438 L 79.753906 247.300781 Z M 73.167969 234.664062 " clip-rule="nonzero"/></clipPath><clipPath id="bb23a96434"><path d="M 81.515625 250.402344 L 72.425781 234.867188 L 120.976562 206.460938 L 130.066406 221.996094 Z M 81.515625 250.402344 " clip-rule="nonzero"/></clipPath><clipPath id="2c87e6bc7c"><path d="M 78.511719 266.046875 L 22.457031 170.238281 L 102.730469 123.277344 L 158.78125 219.085938 Z M 78.511719 266.046875 " clip-rule="nonzero"/></clipPath><clipPath id="cf0610ce05"><path d="M 229 209 L 254 209 L 254 222 L 229 222 Z M 229 209 " clip-rule="nonzero"/></clipPath><clipPath id="d827334eca"><path d="M 227.804688 209.207031 L 254.773438 207.976562 L 255.390625 221.460938 L 228.417969 222.695312 Z M 227.804688 209.207031 " clip-rule="nonzero"/></clipPath><clipPath id="1d6b08de40"><path d="M 227.804688 209.207031 L 254.773438 207.976562 L 255.390625 221.460938 L 228.417969 222.695312 Z M 227.804688 209.207031 " clip-rule="nonzero"/></clipPath><clipPath id="1f6906429d"><path d="M 234 207 L 292 207 L 292 233 L 234 233 Z M 234 207 " clip-rule="nonzero"/></clipPath><clipPath id="405f47ef05"><path d="M 289.097656 232.453125 L 234.683594 221.515625 L 237.492188 207.542969 L 291.90625 218.484375 Z M 289.097656 232.453125 " clip-rule="nonzero"/></clipPath><clipPath id="029008fe1e"><path d="M 304.652344 204.660156 L 288.117188 314.421875 L 196.152344 300.570312 L 212.6875 190.808594 Z M 304.652344 204.660156 " clip-rule="nonzero"/></clipPath><clipPath id="3faed0e129"><path d="M 233 208 L 291 208 L 291 234 L 233 234 Z M 233 208 " clip-rule="nonzero"/></clipPath><clipPath id="0fd137342e"><path d="M 287.960938 233.332031 L 233.550781 222.390625 L 236.359375 208.421875 L 290.769531 219.359375 Z M 287.960938 233.332031 " clip-rule="nonzero"/></clipPath><clipPath id="c654ea85bd"><path d="M 291.34375 215.839844 L 288.664062 233.640625 L 233.042969 225.261719 L 235.722656 207.460938 Z M 291.34375 215.839844 " clip-rule="nonzero"/></clipPath><clipPath id="a02225319b"><path d="M 303.507812 205.550781 L 286.96875 315.3125 L 195.007812 301.457031 L 211.542969 191.695312 Z M 303.507812 205.550781 " clip-rule="nonzero"/></clipPath><clipPath id="ebf11141ed"><path d="M 235 193 L 261 193 L 261 206 L 235 206 Z M 235 193 " clip-rule="nonzero"/></clipPath><clipPath id="8c5abad094"><path d="M 233.007812 194.675781 L 260.5 190.898438 L 262.335938 204.269531 L 234.847656 208.050781 Z M 233.007812 194.675781 " clip-rule="nonzero"/></clipPath><clipPath id="481ac0faa6"><path d="M 233.007812 194.675781 L 260.5 190.898438 L 262.335938 204.269531 L 234.847656 208.050781 Z M 233.007812 194.675781 " clip-rule="nonzero"/></clipPath><clipPath id="6bb1b94062"><path d="M 243 190 L 298 190 L 298 207 L 243 207 Z M 243 190 " clip-rule="nonzero"/></clipPath><clipPath id="a8e75451c6"><path d="M 297.625 204.933594 L 243.667969 207 L 243.121094 192.757812 L 297.082031 190.695312 Z M 297.625 204.933594 " clip-rule="nonzero"/></clipPath><clipPath id="daca0af805"><path d="M 306.039062 174.953125 L 315.5 283.289062 L 225.09375 291.1875 L 215.632812 182.847656 Z M 306.039062 174.953125 " clip-rule="nonzero"/></clipPath><clipPath id="effde6e916"><path d="M 242 191 L 298 191 L 298 208 L 242 208 Z M 242 191 " clip-rule="nonzero"/></clipPath><clipPath id="c25836d615"><path d="M 297.585938 205.273438 L 243.648438 207.914062 L 242.953125 193.683594 L 296.886719 191.039062 Z M 297.585938 205.273438 " clip-rule="nonzero"/></clipPath><clipPath id="53985b6ce3"><path d="M 297.144531 188.097656 L 298.828125 205.265625 L 242.847656 210.757812 L 241.164062 193.589844 Z M 297.144531 188.097656 " clip-rule="nonzero"/></clipPath><clipPath id="42cf4e1b05"><path d="M 305.691406 175.238281 L 316.3125 283.46875 L 225.996094 292.332031 L 215.375 184.101562 Z M 305.691406 175.238281 " clip-rule="nonzero"/></clipPath><clipPath id="33b8f99cba"><path d="M 235 176 L 262 176 L 262 190.117188 L 235 190.117188 Z M 235 176 " clip-rule="nonzero"/></clipPath><clipPath id="e68c3f0c35"><path d="M 241 162 L 298 162 L 298 194 L 241 194 Z M 241 162 " clip-rule="nonzero"/></clipPath><clipPath id="af96c02c82"><path d="M 297.398438 176.476562 L 246.164062 193.535156 L 241.660156 180.015625 L 292.898438 162.957031 Z M 297.398438 176.476562 " clip-rule="nonzero"/></clipPath><clipPath id="fbfbf00c94"><path d="M 297.101562 145.339844 L 336.453125 246.71875 L 251.851562 279.558594 L 212.5 178.179688 Z M 297.101562 145.339844 " clip-rule="nonzero"/></clipPath><clipPath id="a5f0b23916"><path d="M 241 163 L 298 163 L 298 195 L 241 195 Z M 241 163 " clip-rule="nonzero"/></clipPath><clipPath id="1978c4cad7"><path d="M 297.453125 176.8125 L 246.402344 194.417969 L 241.757812 180.949219 L 292.808594 163.34375 Z M 297.453125 176.8125 " clip-rule="nonzero"/></clipPath><clipPath id="bf3ff92176"><path d="M 292.230469 160.445312 L 298.644531 176.457031 L 246.429688 197.375 L 240.015625 181.359375 Z M 292.230469 160.445312 " clip-rule="nonzero"/></clipPath><clipPath id="c6bfc319e2"><path d="M 296.847656 145.710938 L 337.28125 246.664062 L 253.039062 280.40625 L 212.601562 179.453125 Z M 296.847656 145.710938 " clip-rule="nonzero"/></clipPath><clipPath id="72538cea08"><path d="M 160 203 L 209 203 L 209 227 L 160 227 Z M 160 203 " clip-rule="nonzero"/></clipPath><clipPath id="4b0fafc9e0"><path d="M 211.265625 213.230469 L 163.777344 229.664062 L 159.363281 216.90625 L 206.847656 200.472656 Z M 211.265625 213.230469 " clip-rule="nonzero"/></clipPath><clipPath id="da51ed38f0"><path d="M 211.265625 213.230469 L 163.777344 229.664062 L 159.363281 216.90625 L 206.847656 200.472656 Z M 211.265625 213.230469 " clip-rule="nonzero"/></clipPath><clipPath id="cbf322e19a"><path d="M 211.265625 213.230469 L 163.777344 229.664062 L 159.363281 216.90625 L 206.847656 200.472656 Z M 211.265625 213.230469 " clip-rule="nonzero"/></clipPath><clipPath id="4a9001058d"><path d="M 180 191 L 217 191 L 217 227 L 180 227 Z M 180 191 " clip-rule="nonzero"/></clipPath><clipPath id="6b3e01b816"><path d="M 221.617188 178.753906 L 262.847656 251.9375 L 211.882812 280.652344 L 170.648438 207.46875 Z M 221.617188 178.753906 " clip-rule="nonzero"/></clipPath><clipPath id="738b98ad7e"><path d="M 221.617188 178.753906 L 262.847656 251.9375 L 211.882812 280.652344 L 170.648438 207.46875 Z M 221.617188 178.753906 " clip-rule="nonzero"/></clipPath><clipPath id="27621b7b14"><path d="M 183 193 L 258 193 L 258 264 L 183 264 Z M 183 193 " clip-rule="nonzero"/></clipPath><clipPath id="331795da6e"><path d="M 221.617188 178.753906 L 262.847656 251.9375 L 211.882812 280.652344 L 170.648438 207.46875 Z M 221.617188 178.753906 " clip-rule="nonzero"/></clipPath><clipPath id="e1cd530980"><path d="M 221.617188 178.753906 L 262.847656 251.9375 L 211.882812 280.652344 L 170.648438 207.46875 Z M 221.617188 178.753906 " clip-rule="nonzero"/></clipPath><clipPath id="3fe378e53c"><path d="M 186 199 L 223 199 L 223 235 L 186 235 Z M 186 199 " clip-rule="nonzero"/></clipPath><clipPath id="cc31db6e82"><path d="M 221.617188 178.753906 L 262.847656 251.9375 L 211.882812 280.652344 L 170.648438 207.46875 Z M 221.617188 178.753906 " clip-rule="nonzero"/></clipPath><clipPath id="d54dee6d4f"><path d="M 221.617188 178.753906 L 262.847656 251.9375 L 211.882812 280.652344 L 170.648438 207.46875 Z M 221.617188 178.753906 " clip-rule="nonzero"/></clipPath><clipPath id="e05549dad5"><path d="M 213 229 L 254 229 L 254 254 L 213 254 Z M 213 229 " clip-rule="nonzero"/></clipPath><clipPath id="54bbf1b53b"><path d="M 221.617188 178.753906 L 262.847656 251.9375 L 211.882812 280.652344 L 170.648438 207.46875 Z M 221.617188 178.753906 " clip-rule="nonzero"/></clipPath><clipPath id="a330c9608b"><path d="M 221.617188 178.753906 L 262.847656 251.9375 L 211.882812 280.652344 L 170.648438 207.46875 Z M 221.617188 178.753906 " clip-rule="nonzero"/></clipPath></defs><rect x="-37.5" width="450" fill="#ffffff" y="-37.499999" height="449.999989" fill-opacity="1"/><rect x="-37.5" width="450" fill="#ffffff" y="-37.499999" height="449.999989" fill-opacity="1"/><g clip-path="url(#2e4f1692f1)"><g clip-path="url(#602039e05d)"><g clip-path="url(#07fbabde8e)"><path fill="#ffbd59" d="M 117.042969 160.292969 C 114.984375 156.421875 113.171875 152.441406 111.609375 148.351562 C 108.839844 140.984375 106.449219 133.496094 104.445312 125.890625 C 103.21875 121.277344 103.96875 119.785156 108.464844 118.175781 C 112.726562 116.648438 117.171875 117.050781 121.5625 117.304688 C 126.488281 117.636719 131.351562 118.390625 136.160156 119.566406 C 139.78125 120.394531 143.105469 121.902344 146.128906 124.09375 C 149.890625 126.832031 150.628906 129.40625 148.632812 133.609375 C 146.683594 137.722656 143.917969 141.332031 141.234375 144.96875 C 136.980469 150.742188 131.941406 155.839844 127.117188 161.117188 C 124.027344 164.488281 119.9375 164.203125 117.042969 160.292969 Z M 117.042969 160.292969 " fill-opacity="1" fill-rule="nonzero"/></g></g></g><g clip-path="url(#763cc4711f)"><g clip-path="url(#9a9bc1f9dd)"><g clip-path="url(#f89d276113)"><path fill="#ffbd59" d="M 152.589844 240.441406 C 167.109375 241.675781 185.492188 238.773438 199.132812 238.132812 C 212.902344 237.585938 222.296875 239.359375 233.800781 234.066406 C 245.300781 228.773438 259.28125 216.476562 263.742188 200.054688 C 267.96875 183.667969 262.816406 163.257812 247.371094 146.773438 C 232.023438 130.152344 206.25 117.363281 185.105469 116.183594 C 164.0625 114.871094 147.546875 125.300781 133.683594 139.121094 C 119.820312 152.941406 108.746094 170.246094 106.261719 185.65625 C 103.644531 200.96875 109.847656 214.355469 118.296875 223.847656 C 126.878906 233.441406 137.933594 239.109375 152.589844 240.441406 Z M 152.589844 240.441406 " fill-opacity="1" fill-rule="evenodd"/></g></g></g><g clip-path="url(#df8b99d617)"><g clip-path="url(#db021d3ee5)"><g clip-path="url(#42b3f0a2c3)"><g clip-path="url(#6dcd2ac19b)"><path fill="#f89e6b" d="M 112.664062 160.921875 C 111.117188 157.1875 109.808594 153.371094 108.742188 149.472656 C 106.859375 142.457031 105.347656 135.363281 104.199219 128.1875 C 103.492188 123.835938 104.324219 122.519531 108.644531 121.402344 C 112.738281 120.339844 116.824219 121.070312 120.871094 121.660156 C 125.40625 122.363281 129.847656 123.453125 134.195312 124.925781 C 137.476562 125.980469 140.417969 127.640625 143.015625 129.90625 C 146.25 132.734375 146.691406 135.167969 144.449219 138.882812 C 142.257812 142.515625 139.359375 145.617188 136.53125 148.753906 C 132.042969 153.730469 126.894531 158.023438 121.929688 162.496094 C 118.75 165.355469 114.984375 164.761719 112.664062 160.921875 Z M 112.664062 160.921875 " fill-opacity="1" fill-rule="nonzero"/></g></g></g></g><g clip-path="url(#c2367f4598)"><g clip-path="url(#3013498f44)"><g clip-path="url(#4127e18ae0)"><path fill="#f89e6b" d="M 148.25 244.632812 C 162.769531 245.867188 181.152344 242.96875 194.792969 242.324219 C 208.566406 241.777344 217.957031 243.550781 229.460938 238.257812 C 240.960938 232.964844 254.941406 220.667969 259.402344 204.25 C 263.632812 187.863281 258.476562 167.449219 243.03125 150.964844 C 227.683594 134.347656 201.914062 121.554688 180.769531 120.375 C 159.722656 119.0625 143.207031 129.496094 129.34375 143.3125 C 115.484375 157.132812 104.40625 174.4375 101.921875 189.847656 C 99.304688 205.160156 105.507812 218.546875 113.957031 228.042969 C 122.539062 237.632812 133.59375 243.300781 148.25 244.632812 Z M 148.25 244.632812 " fill-opacity="1" fill-rule="evenodd"/></g></g></g><g clip-path="url(#993adc853a)"><g clip-path="url(#3f5ac97c56)"><g clip-path="url(#a337770f5a)"><path fill="#ffbd59" d="M 213.910156 120.003906 C 217.625 117.949219 221.457031 116.132812 225.402344 114.558594 C 232.507812 111.769531 239.738281 109.351562 247.097656 107.304688 C 251.558594 106.054688 253.03125 106.773438 254.714844 111.152344 C 256.308594 115.308594 256.03125 119.664062 255.898438 123.960938 C 255.699219 128.785156 255.089844 133.554688 254.066406 138.269531 C 253.351562 141.824219 251.96875 145.09375 249.914062 148.074219 C 247.34375 151.785156 244.855469 152.535156 240.707031 150.628906 C 236.652344 148.765625 233.066406 146.101562 229.453125 143.511719 C 223.722656 139.410156 218.625 134.535156 213.363281 129.871094 C 210 126.882812 210.171875 122.882812 213.910156 120.003906 Z M 213.910156 120.003906 " fill-opacity="1" fill-rule="nonzero"/></g></g></g><g clip-path="url(#cdf9a53df7)"><g clip-path="url(#49ef71f3af)"><g clip-path="url(#cf3e99bb58)"><g clip-path="url(#227abe6602)"><path fill="#f89e6b" d="M 212.292969 125.308594 C 216.042969 123.175781 219.910156 121.28125 223.902344 119.632812 C 231.085938 116.707031 238.402344 114.15625 245.851562 111.988281 C 250.371094 110.660156 251.875 111.371094 253.640625 115.800781 C 255.316406 120.003906 255.089844 124.433594 255.003906 128.800781 C 254.867188 133.703125 254.304688 138.558594 253.328125 143.363281 C 252.648438 146.984375 251.28125 150.324219 249.230469 153.378906 C 246.667969 157.179688 244.148438 157.972656 239.910156 156.089844 C 235.765625 154.246094 232.085938 151.582031 228.382812 149 C 222.507812 144.90625 217.269531 140.015625 211.863281 135.34375 C 208.410156 132.351562 208.53125 128.28125 212.292969 125.308594 Z M 212.292969 125.308594 " fill-opacity="1" fill-rule="nonzero"/></g></g></g></g><g clip-path="url(#10ef6736c7)"><path fill="#000000" d="M 153.433594 154.488281 C 154.96875 154.480469 159.058594 154.511719 162.738281 157.421875 C 165.542969 159.640625 166.664062 162.386719 167.160156 163.640625 C 169.457031 169.453125 167.636719 174.78125 167.042969 176.429688 C 166.347656 178.371094 165.308594 181.269531 162.507812 183.585938 C 157.816406 187.457031 151.015625 187.351562 146.21875 184.992188 C 145.4375 184.609375 142.382812 183.019531 140.054688 179.476562 C 139.625 178.828125 137.511719 175.515625 137.378906 170.679688 C 137.332031 169.054688 137.203125 164.5 140.285156 160.589844 C 142.25 158.101562 144.632812 156.988281 146.21875 156.25 C 147.507812 155.648438 150.011719 154.511719 153.433594 154.488281 Z M 153.433594 154.488281 " fill-opacity="1" fill-rule="nonzero"/></g><g clip-path="url(#5f1e895bb1)"><path fill="#ffffff" d="M 154.9375 158.050781 C 156.332031 158.039062 160.042969 158.066406 163.378906 160.648438 C 165.921875 162.613281 166.941406 165.046875 167.390625 166.15625 C 169.472656 171.308594 167.820312 176.03125 167.285156 177.488281 C 166.652344 179.210938 165.710938 181.78125 163.167969 183.832031 C 158.914062 187.261719 152.746094 187.167969 148.398438 185.078125 C 147.6875 184.738281 144.917969 183.332031 142.804688 180.191406 C 142.417969 179.617188 140.5 176.679688 140.378906 172.394531 C 140.335938 170.957031 140.21875 166.921875 143.015625 163.453125 C 144.796875 161.25 146.957031 160.265625 148.398438 159.609375 C 149.566406 159.074219 151.835938 158.070312 154.9375 158.050781 Z M 154.9375 158.050781 " fill-opacity="1" fill-rule="nonzero"/></g><g clip-path="url(#7836eec08f)"><path fill="#000000" d="M 207.730469 154.324219 C 209.265625 154.3125 213.355469 154.34375 217.039062 157.257812 C 219.839844 159.472656 220.960938 162.222656 221.457031 163.476562 C 223.753906 169.289062 221.933594 174.617188 221.34375 176.261719 C 220.644531 178.203125 219.605469 181.105469 216.804688 183.417969 C 212.113281 187.292969 205.3125 187.183594 200.515625 184.828125 C 199.734375 184.441406 196.683594 182.855469 194.351562 179.3125 C 193.921875 178.664062 191.8125 175.351562 191.675781 170.515625 C 191.628906 168.890625 191.5 164.335938 194.582031 160.425781 C 196.546875 157.933594 198.929688 156.824219 200.515625 156.085938 C 201.808594 155.480469 204.308594 154.347656 207.730469 154.324219 Z M 207.730469 154.324219 " fill-opacity="1" fill-rule="nonzero"/></g><g clip-path="url(#42ab0af530)"><path fill="#ffffff" d="M 206.21875 158.050781 C 207.613281 158.039062 211.324219 158.066406 214.660156 160.648438 C 217.203125 162.613281 218.222656 165.046875 218.671875 166.15625 C 220.753906 171.308594 219.101562 176.03125 218.566406 177.488281 C 217.933594 179.210938 216.992188 181.78125 214.449219 183.832031 C 210.195312 187.261719 204.027344 187.167969 199.679688 185.078125 C 198.96875 184.738281 196.199219 183.332031 194.085938 180.191406 C 193.699219 179.617188 191.78125 176.679688 191.660156 172.394531 C 191.617188 170.957031 191.5 166.921875 194.296875 163.453125 C 196.078125 161.25 198.238281 160.265625 199.679688 159.609375 C 200.847656 159.074219 203.117188 158.070312 206.21875 158.050781 Z M 206.21875 158.050781 " fill-opacity="1" fill-rule="nonzero"/></g><g clip-path="url(#5d2cb10ba8)"><path fill="#000000" d="M 206.402344 155.382812 C 207.507812 155.375 210.457031 155.398438 213.109375 157.449219 C 215.128906 159.011719 215.941406 160.945312 216.296875 161.832031 C 217.953125 165.925781 216.640625 169.679688 216.214844 170.839844 C 215.710938 172.207031 214.960938 174.25 212.941406 175.878906 C 209.5625 178.609375 204.660156 178.535156 201.199219 176.871094 C 200.636719 176.601562 198.4375 175.484375 196.753906 172.988281 C 196.445312 172.53125 194.925781 170.195312 194.824219 166.789062 C 194.792969 165.644531 194.699219 162.4375 196.921875 159.679688 C 198.335938 157.929688 200.054688 157.144531 201.199219 156.625 C 202.128906 156.199219 203.933594 155.402344 206.402344 155.382812 Z M 206.402344 155.382812 " fill-opacity="1" fill-rule="nonzero"/></g><g clip-path="url(#99e245a058)"><path fill="#000000" d="M 150.90625 154.769531 C 151.976562 154.761719 154.828125 154.785156 157.398438 156.835938 C 159.351562 158.394531 160.136719 160.332031 160.484375 161.214844 C 162.085938 165.308594 160.8125 169.0625 160.402344 170.222656 C 159.914062 171.589844 159.1875 173.632812 157.234375 175.261719 C 153.964844 177.992188 149.21875 177.914062 145.871094 176.253906 C 145.328125 175.984375 143.195312 174.867188 141.570312 172.371094 C 141.273438 171.914062 139.796875 169.578125 139.703125 166.171875 C 139.671875 165.027344 139.582031 161.820312 141.734375 159.066406 C 143.101562 157.3125 144.765625 156.53125 145.871094 156.007812 C 146.773438 155.585938 148.519531 154.785156 150.90625 154.769531 Z M 150.90625 154.769531 " fill-opacity="1" fill-rule="nonzero"/></g><g clip-path="url(#5192280144)"><g clip-path="url(#7fec5eaa47)"><g clip-path="url(#e5934e0777)"><path fill="#936407" d="M 115.835938 153.753906 C 114.847656 151.273438 114.019531 148.738281 113.351562 146.148438 C 112.175781 141.484375 111.246094 136.769531 110.5625 132.007812 C 110.144531 129.117188 110.71875 128.246094 113.621094 127.511719 C 116.375 126.8125 119.101562 127.304688 121.804688 127.707031 C 124.832031 128.183594 127.792969 128.917969 130.683594 129.902344 C 132.871094 130.613281 134.820312 131.71875 136.53125 133.226562 C 138.660156 135.113281 138.929688 136.730469 137.382812 139.191406 C 135.871094 141.597656 133.890625 143.652344 131.960938 145.730469 C 128.898438 149.023438 125.398438 151.863281 122.019531 154.820312 C 119.855469 156.710938 117.34375 156.308594 115.835938 153.753906 Z M 115.835938 153.753906 " fill-opacity="1" fill-rule="nonzero"/></g></g></g><g clip-path="url(#6fd705e281)"><g clip-path="url(#0a05f4834a)"><g clip-path="url(#8365370563)"><path fill="#936407" d="M 222.777344 128.761719 C 225.15625 127.539062 227.601562 126.46875 230.113281 125.558594 C 234.644531 123.941406 239.246094 122.566406 243.925781 121.433594 C 246.761719 120.738281 247.683594 121.226562 248.691406 124.046875 C 249.648438 126.722656 249.417969 129.484375 249.277344 132.210938 C 249.09375 135.273438 248.644531 138.289062 247.941406 141.261719 C 247.445312 143.503906 246.527344 145.550781 245.191406 147.398438 C 243.519531 149.699219 241.933594 150.121094 239.335938 148.816406 C 236.796875 147.539062 234.5625 145.769531 232.308594 144.042969 C 228.738281 141.308594 225.578125 138.097656 222.308594 135.019531 C 220.21875 133.046875 220.378906 130.507812 222.777344 128.761719 Z M 222.777344 128.761719 " fill-opacity="1" fill-rule="nonzero"/></g></g></g><g clip-path="url(#a528414d8b)"><g clip-path="url(#7f2cf0bc7e)"><g clip-path="url(#01b445ff08)"><path fill="#d46767" d="M 177.257812 201.621094 C 179.007812 201.832031 181.257812 201.558594 182.917969 201.539062 C 184.589844 201.53125 185.714844 201.789062 187.152344 201.191406 C 188.589844 200.59375 190.378906 199.152344 191.050781 197.167969 C 191.691406 195.183594 191.226562 192.667969 189.484375 190.585938 C 187.757812 188.492188 184.730469 186.816406 182.179688 186.582031 C 179.636719 186.332031 177.550781 187.535156 175.761719 189.160156 C 173.972656 190.789062 172.496094 192.855469 172.070312 194.726562 C 171.632812 196.585938 172.28125 198.25 173.230469 199.445312 C 174.195312 200.652344 175.492188 201.394531 177.257812 201.621094 Z M 177.257812 201.621094 " fill-opacity="1" fill-rule="evenodd"/></g></g></g><g clip-path="url(#48dbf0edbb)"><g clip-path="url(#33f86f0b32)"><g clip-path="url(#36d20e042d)"><path fill="#f49dd3" d="M 178.3125 201.289062 C 179.597656 201.480469 181.246094 201.324219 182.460938 201.34375 C 183.6875 201.371094 184.519531 201.582031 185.558594 201.179688 C 186.601562 200.773438 187.882812 199.765625 188.335938 198.339844 C 188.765625 196.914062 188.375 195.082031 187.054688 193.539062 C 185.746094 191.984375 183.496094 190.707031 181.617188 190.484375 C 179.75 190.253906 178.246094 191.082031 176.964844 192.226562 C 175.6875 193.371094 174.644531 194.839844 174.371094 196.1875 C 174.085938 197.527344 174.59375 198.746094 175.316406 199.628906 C 176.046875 200.527344 177.011719 201.089844 178.3125 201.289062 Z M 178.3125 201.289062 " fill-opacity="1" fill-rule="evenodd"/></g></g></g><g clip-path="url(#0742182f99)"><g clip-path="url(#2e3a73d617)"><g clip-path="url(#82dc6413ef)"><path fill="#ca794c" d="M 105.613281 189.675781 C 110.015625 192.785156 115.96875 193.4375 118.277344 193.5625 C 120.070312 193.660156 122.132812 193.519531 123.730469 192.648438 C 127.042969 190.832031 129.421875 186.835938 125.59375 183.472656 C 121.863281 180.203125 119.367188 182.84375 113.609375 183.433594 C 110.183594 183.789062 107.90625 182.257812 105.074219 182.773438 C 102.328125 183.269531 101.230469 186.574219 105.613281 189.675781 Z M 105.613281 189.675781 " fill-opacity="1" fill-rule="evenodd"/></g></g></g><g clip-path="url(#e2eb0c5fa8)"><g clip-path="url(#f46f081f48)"><g clip-path="url(#289d6f9176)"><path fill="#737373" d="M 109.628906 199.191406 C 110.65625 198.984375 111.664062 199.648438 111.871094 200.675781 C 112.078125 201.707031 111.410156 202.714844 110.382812 202.921875 C 105.386719 203.933594 98.59375 204.203125 91.9375 203.695312 C 85.738281 203.226562 79.582031 202.066406 75.027344 200.195312 C 72.90625 199.328125 71.085938 198.542969 69.613281 197.917969 C 64.292969 195.640625 64.007812 195.515625 54.1875 193.882812 C 53.148438 193.710938 52.449219 192.730469 52.621094 191.691406 C 52.792969 190.648438 53.773438 189.949219 54.8125 190.121094 C 65.023438 191.820312 65.335938 191.953125 71.101562 194.421875 C 72.40625 194.976562 74.015625 195.667969 76.460938 196.671875 C 80.621094 198.378906 86.367188 199.449219 92.234375 199.898438 C 98.53125 200.390625 104.933594 200.140625 109.628906 199.191406 Z M 149.417969 176.640625 C 149.242188 177.679688 148.265625 178.382812 147.226562 178.210938 C 146.1875 178.035156 145.484375 177.054688 145.660156 176.015625 C 147.816406 163.042969 145.714844 121.300781 144.957031 106.328125 L 144.800781 103.132812 C 144.75 102.082031 145.5625 101.1875 146.609375 101.136719 C 147.65625 101.089844 148.550781 101.902344 148.601562 102.945312 L 148.757812 106.144531 C 149.519531 121.226562 151.636719 163.285156 149.417969 176.636719 Z M 134.09375 170.585938 C 134.265625 171.621094 133.558594 172.601562 132.523438 172.769531 C 131.488281 172.9375 130.507812 172.230469 130.339844 171.199219 L 129.527344 166.199219 C 127.75 155.414062 124.261719 134.21875 124.722656 131.4375 C 124.898438 130.398438 125.878906 129.699219 126.917969 129.871094 C 127.957031 130.042969 128.65625 131.023438 128.484375 132.0625 C 128.121094 134.238281 131.539062 155.007812 133.277344 165.585938 Z M 120.464844 174.4375 C 120.96875 175.355469 120.640625 176.515625 119.726562 177.019531 C 118.808594 177.53125 117.648438 177.199219 117.136719 176.28125 C 116.601562 175.3125 108.589844 166.488281 100.542969 157.847656 C 92.871094 149.597656 85.222656 141.582031 84.085938 140.789062 C 81.480469 138.972656 80.402344 138.539062 79.628906 138.230469 C 77.84375 137.519531 77.257812 137.277344 71.164062 130.417969 L 70.542969 129.742188 C 69.835938 128.972656 69.886719 127.765625 70.660156 127.058594 C 71.429688 126.347656 72.632812 126.398438 73.34375 127.171875 L 74.003906 127.886719 C 79.507812 134.082031 79.882812 134.238281 81.039062 134.695312 C 81.988281 135.074219 83.308594 135.601562 86.265625 137.664062 C 87.601562 138.597656 95.492188 146.839844 103.328125 155.261719 C 111.546875 164.085938 119.792969 173.222656 120.46875 174.433594 Z M 112.808594 186.375 C 113.847656 186.546875 114.546875 187.527344 114.375 188.566406 C 114.203125 189.605469 113.222656 190.304688 112.183594 190.132812 C 106.585938 189.203125 102.546875 187.660156 98.503906 186.117188 C 95.632812 185.023438 92.753906 183.925781 89.226562 183.0625 C 88.691406 182.9375 87.882812 182.6875 86.980469 182.414062 C 84.679688 181.71875 81.636719 180.792969 80.382812 181.078125 C 79.359375 181.304688 78.335938 180.660156 78.109375 179.632812 C 77.882812 178.609375 78.527344 177.585938 79.550781 177.359375 C 81.761719 176.859375 85.363281 177.953125 88.074219 178.773438 C 88.832031 179.003906 89.519531 179.214844 90.113281 179.359375 C 93.78125 180.25 96.816406 181.414062 99.847656 182.566406 C 103.671875 184.027344 107.496094 185.488281 112.804688 186.371094 Z M 112.808594 186.375 " fill-opacity="1" fill-rule="nonzero"/></g></g></g><g clip-path="url(#f915ebe56a)"><g clip-path="url(#367def3ae8)"><g clip-path="url(#dfcd3e50d4)"><g clip-path="url(#98e57aa4f5)"><path fill="#000000" d="M 109.636719 198.457031 C 110.667969 198.25 111.671875 198.914062 111.878906 199.945312 C 112.085938 200.972656 111.421875 201.980469 110.394531 202.1875 C 105.394531 203.199219 98.605469 203.46875 91.949219 202.960938 C 85.746094 202.492188 79.59375 201.332031 75.035156 199.460938 C 72.917969 198.597656 71.097656 197.8125 69.625 197.183594 C 64.304688 194.90625 64.019531 194.785156 54.195312 193.148438 C 53.15625 192.976562 52.457031 191.996094 52.628906 190.957031 C 52.804688 189.917969 53.785156 189.21875 54.820312 189.390625 C 65.035156 191.089844 65.34375 191.222656 71.113281 193.6875 C 72.414062 194.246094 74.027344 194.9375 76.46875 195.941406 C 80.628906 197.648438 86.375 198.71875 92.246094 199.167969 C 98.542969 199.65625 104.941406 199.40625 109.636719 198.457031 Z M 149.425781 175.910156 C 149.253906 176.949219 148.273438 177.648438 147.234375 177.476562 C 146.195312 177.304688 145.496094 176.324219 145.667969 175.285156 C 147.828125 162.308594 145.722656 120.570312 144.96875 105.59375 L 144.808594 102.398438 C 144.761719 101.351562 145.574219 100.457031 146.617188 100.40625 C 147.667969 100.355469 148.5625 101.167969 148.609375 102.214844 L 148.769531 105.410156 C 149.527344 120.492188 151.648438 162.550781 149.425781 175.90625 Z M 134.101562 169.851562 C 134.273438 170.886719 133.566406 171.867188 132.535156 172.035156 C 131.5 172.207031 130.519531 171.5 130.351562 170.464844 L 129.535156 165.46875 C 127.761719 154.679688 124.273438 133.488281 124.734375 130.707031 C 124.90625 129.667969 125.886719 128.964844 126.925781 129.140625 C 127.964844 129.3125 128.664062 130.292969 128.492188 131.332031 C 128.128906 133.507812 131.546875 154.277344 133.289062 164.855469 Z M 120.472656 173.703125 C 120.980469 174.621094 120.652344 175.78125 119.734375 176.289062 C 118.816406 176.800781 117.660156 176.46875 117.148438 175.550781 C 116.613281 174.582031 108.601562 165.757812 100.554688 157.113281 C 92.878906 148.867188 85.230469 140.851562 84.097656 140.054688 C 81.492188 138.238281 80.410156 137.804688 79.636719 137.5 C 77.851562 136.785156 77.269531 136.546875 71.175781 129.6875 L 70.554688 129.007812 C 69.847656 128.238281 69.898438 127.03125 70.667969 126.324219 C 71.4375 125.617188 72.644531 125.667969 73.351562 126.441406 L 74.011719 127.15625 C 79.519531 133.347656 79.894531 133.503906 81.050781 133.960938 C 82 134.339844 83.316406 134.867188 86.277344 136.933594 C 87.613281 137.867188 95.5 146.105469 103.339844 154.527344 C 111.558594 163.351562 119.804688 172.488281 120.476562 173.699219 Z M 112.816406 185.640625 C 113.855469 185.8125 114.558594 186.792969 114.382812 187.832031 C 114.210938 188.871094 113.230469 189.574219 112.191406 189.402344 C 106.597656 188.46875 102.554688 186.925781 98.515625 185.386719 C 95.644531 184.292969 92.761719 183.191406 89.234375 182.332031 C 88.703125 182.203125 87.890625 181.953125 86.988281 181.679688 C 84.6875 180.984375 81.648438 180.058594 80.394531 180.34375 C 79.367188 180.570312 78.347656 179.925781 78.121094 178.902344 C 77.894531 177.878906 78.539062 176.855469 79.5625 176.628906 C 81.773438 176.128906 85.371094 177.21875 88.085938 178.042969 C 88.84375 178.273438 89.53125 178.480469 90.121094 178.628906 C 93.789062 179.519531 96.824219 180.683594 99.855469 181.835938 C 103.679688 183.296875 107.507812 184.753906 112.816406 185.636719 Z M 112.816406 185.640625 " fill-opacity="1" fill-rule="nonzero"/></g></g></g></g><g clip-path="url(#4e5554c038)"><g clip-path="url(#2e5543d1fa)"><g clip-path="url(#760e5ad441)"><path fill="#ca794c" d="M 105.746094 208.707031 C 110.765625 210.671875 116.699219 209.882812 118.972656 209.453125 C 120.738281 209.121094 122.703125 208.492188 124.046875 207.265625 C 126.832031 204.707031 128.183594 200.257812 123.664062 197.910156 C 119.261719 195.625 117.46875 198.785156 112.019531 200.734375 C 108.773438 201.898438 106.195312 200.957031 103.574219 202.132812 C 101.023438 203.273438 100.746094 206.742188 105.746094 208.707031 Z M 105.746094 208.707031 " fill-opacity="1" fill-rule="evenodd"/></g></g></g><g clip-path="url(#32173b06fe)"><g clip-path="url(#de0a30e091)"><g clip-path="url(#f19f8fd8e9)"><path fill="#737373" d="M 109.234375 216.554688 C 110.164062 216.125 111.269531 216.53125 111.699219 217.464844 C 112.128906 218.398438 111.722656 219.511719 110.792969 219.941406 C 106.277344 222.035156 99.894531 223.832031 93.460938 224.851562 C 87.46875 225.808594 81.363281 226.097656 76.613281 225.34375 C 74.40625 225 72.503906 224.664062 70.964844 224.398438 C 65.398438 223.433594 65.097656 223.378906 55.40625 224.046875 C 54.378906 224.117188 53.492188 223.339844 53.421875 222.3125 C 53.351562 221.28125 54.125 220.390625 55.148438 220.320312 C 65.226562 219.628906 65.550781 219.683594 71.585938 220.730469 C 72.945312 220.964844 74.632812 221.261719 77.179688 221.664062 C 81.515625 222.347656 87.210938 222.070312 92.882812 221.167969 C 98.972656 220.210938 104.992188 218.523438 109.234375 216.554688 Z M 141.910156 186.054688 C 141.980469 187.085938 141.207031 187.976562 140.183594 188.046875 C 139.160156 188.117188 138.273438 187.339844 138.199219 186.3125 C 137.316406 173.457031 125.886719 134.144531 121.789062 120.042969 L 120.914062 117.03125 C 120.632812 116.042969 121.199219 115.007812 122.179688 114.722656 C 123.164062 114.4375 124.195312 115.011719 124.480469 115.996094 L 125.351562 119.007812 C 129.484375 133.210938 141 172.820312 141.910156 186.050781 Z M 125.996094 183.75 C 126.390625 184.699219 125.941406 185.792969 124.996094 186.1875 C 124.054688 186.585938 122.964844 186.132812 122.570312 185.183594 L 120.667969 180.605469 C 116.546875 170.726562 108.445312 151.3125 108.253906 148.558594 C 108.183594 147.527344 108.957031 146.640625 109.980469 146.570312 C 111.003906 146.5 111.890625 147.273438 111.964844 148.304688 C 112.109375 150.460938 120.050781 169.484375 124.09375 179.171875 Z M 113.925781 190.507812 C 114.613281 191.269531 114.566406 192.449219 113.808594 193.136719 C 113.054688 193.832031 111.878906 193.777344 111.1875 193.019531 C 110.457031 192.21875 100.859375 185.621094 91.265625 179.203125 C 82.117188 173.082031 73.046875 167.171875 71.789062 166.671875 C 68.90625 165.527344 67.78125 165.359375 66.980469 165.242188 C 65.125 164.964844 64.515625 164.871094 57.179688 159.710938 L 56.4375 159.207031 C 55.589844 158.632812 55.367188 157.472656 55.941406 156.621094 C 56.511719 155.769531 57.667969 155.546875 58.511719 156.125 L 59.300781 156.65625 C 65.929688 161.3125 66.320312 161.375 67.523438 161.550781 C 68.507812 161.695312 69.878906 161.902344 73.152344 163.199219 C 74.632812 163.785156 83.984375 169.855469 93.328125 176.109375 C 103.121094 182.660156 113.015625 189.503906 113.929688 190.503906 Z M 109.355469 203.621094 C 110.382812 203.550781 111.269531 204.324219 111.339844 205.355469 C 111.410156 206.382812 110.636719 207.273438 109.613281 207.34375 C 104.089844 207.722656 99.90625 207.167969 95.722656 206.613281 C 92.75 206.222656 89.765625 205.824219 86.222656 205.804688 C 85.6875 205.800781 84.863281 205.746094 83.941406 205.691406 C 81.601562 205.550781 78.503906 205.355469 77.378906 205.910156 C 76.457031 206.359375 75.34375 205.976562 74.894531 205.050781 C 74.449219 204.125 74.828125 203.003906 75.75 202.554688 C 77.734375 201.578125 81.398438 201.804688 84.160156 201.972656 C 84.933594 202.023438 85.632812 202.066406 86.226562 202.070312 C 89.910156 202.089844 93.054688 202.511719 96.191406 202.925781 C 100.152344 203.453125 104.117188 203.976562 109.351562 203.617188 Z M 109.355469 203.621094 " fill-opacity="1" fill-rule="nonzero"/></g></g></g><g clip-path="url(#d7ce3f6a2c)"><g clip-path="url(#7807b72a1e)"><g clip-path="url(#c249a63499)"><g clip-path="url(#213804f6cd)"><path fill="#000000" d="M 109.460938 215.683594 C 110.386719 215.242188 111.496094 215.636719 111.933594 216.566406 C 112.375 217.496094 111.980469 218.609375 111.058594 219.050781 C 106.5625 221.195312 100.199219 223.058594 93.777344 224.148438 C 87.792969 225.167969 81.691406 225.523438 76.9375 224.820312 C 74.726562 224.5 72.816406 224.183594 71.273438 223.9375 C 65.699219 223.03125 65.402344 222.980469 55.714844 223.75 C 54.691406 223.832031 53.796875 223.0625 53.714844 222.035156 C 53.632812 221.007812 54.394531 220.109375 55.417969 220.027344 C 65.488281 219.226562 65.8125 219.277344 71.859375 220.261719 C 73.222656 220.480469 74.910156 220.757812 77.460938 221.132812 C 81.804688 221.773438 87.496094 221.433594 93.160156 220.46875 C 99.238281 219.449219 105.238281 217.695312 109.460938 215.683594 Z M 141.808594 184.835938 C 141.890625 185.863281 141.125 186.761719 140.101562 186.84375 C 139.078125 186.925781 138.183594 186.160156 138.101562 185.128906 C 137.082031 172.285156 125.230469 133.097656 120.980469 119.042969 L 120.074219 116.039062 C 119.78125 115.054688 120.335938 114.011719 121.316406 113.71875 C 122.296875 113.421875 123.335938 113.984375 123.628906 114.964844 L 124.535156 117.964844 C 128.816406 132.125 140.757812 171.609375 141.808594 184.832031 Z M 125.867188 182.699219 C 126.273438 183.644531 125.835938 184.742188 124.898438 185.148438 C 123.957031 185.554688 122.863281 185.113281 122.460938 184.171875 L 120.507812 179.613281 C 116.28125 169.777344 107.972656 150.453125 107.753906 147.699219 C 107.671875 146.671875 108.433594 145.773438 109.457031 145.691406 C 110.480469 145.609375 111.375 146.375 111.457031 147.40625 C 111.628906 149.558594 119.769531 168.496094 123.917969 178.140625 Z M 113.871094 189.585938 C 114.570312 190.339844 114.53125 191.519531 113.785156 192.21875 C 113.035156 192.921875 111.859375 192.878906 111.160156 192.128906 C 110.425781 191.332031 100.753906 184.839844 91.09375 178.527344 C 81.878906 172.5 72.746094 166.6875 71.484375 166.203125 C 68.589844 165.089844 67.464844 164.933594 66.660156 164.824219 C 64.800781 164.566406 64.1875 164.476562 56.800781 159.398438 L 56.054688 158.902344 C 55.199219 158.335938 54.964844 157.179688 55.527344 156.320312 C 56.089844 155.464844 57.242188 155.230469 58.09375 155.796875 L 58.886719 156.320312 C 65.566406 160.90625 65.957031 160.964844 67.160156 161.128906 C 68.148438 161.261719 69.519531 161.453125 72.808594 162.714844 C 74.296875 163.285156 83.710938 169.253906 93.121094 175.410156 C 102.984375 181.855469 112.953125 188.589844 113.875 189.582031 Z M 109.445312 202.746094 C 110.46875 202.664062 111.363281 203.429688 111.445312 204.460938 C 111.527344 205.488281 110.765625 206.386719 109.738281 206.46875 C 104.222656 206.90625 100.03125 206.394531 95.839844 205.886719 C 92.863281 205.523438 89.875 205.160156 86.335938 205.175781 C 85.800781 205.183594 84.972656 205.136719 84.054688 205.089844 C 81.710938 204.972656 78.613281 204.8125 77.492188 205.378906 C 76.578125 205.835938 75.457031 205.464844 75 204.546875 C 74.542969 203.625 74.910156 202.5 75.828125 202.042969 C 77.804688 201.042969 81.46875 201.230469 84.230469 201.371094 C 85.003906 201.410156 85.703125 201.449219 86.300781 201.445312 C 89.980469 201.425781 93.132812 201.8125 96.273438 202.191406 C 100.238281 202.675781 104.207031 203.160156 109.441406 202.742188 Z M 109.445312 202.746094 " fill-opacity="1" fill-rule="nonzero"/></g></g></g></g><g clip-path="url(#e09838cb7f)"><g clip-path="url(#f8bc755510)"><g clip-path="url(#514e3f8e6a)"><path fill="#ca794c" d="M 114.890625 226.011719 C 120.488281 227.015625 126.464844 224.980469 128.722656 224.066406 C 130.480469 223.359375 132.382812 222.304688 133.519531 220.757812 C 135.871094 217.539062 136.347656 212.65625 131.1875 211.15625 C 126.164062 209.695312 124.964844 213.335938 119.730469 216.472656 C 116.617188 218.34375 113.753906 217.898438 111.285156 219.65625 C 108.882812 221.359375 109.316406 225.007812 114.890625 226.011719 Z M 114.890625 226.011719 " fill-opacity="1" fill-rule="evenodd"/></g></g></g><g clip-path="url(#86953f3e43)"><g clip-path="url(#89bb96bbd2)"><g clip-path="url(#61f1dbfa0c)"><path fill="#737373" d="M 123.773438 231.59375 C 124.429688 230.777344 125.628906 230.644531 126.449219 231.300781 C 127.265625 231.960938 127.398438 233.160156 126.742188 233.976562 C 123.546875 237.953125 118.5 242.503906 113.058594 246.371094 C 107.992188 249.976562 102.519531 253.027344 97.820312 254.5 C 95.640625 255.191406 93.738281 255.753906 92.207031 256.214844 C 86.660156 257.867188 86.359375 257.953125 77.765625 262.980469 C 76.855469 263.515625 75.691406 263.207031 75.160156 262.300781 C 74.628906 261.390625 74.933594 260.222656 75.839844 259.691406 C 84.777344 254.464844 85.101562 254.367188 91.113281 252.574219 C 92.46875 252.167969 94.152344 251.667969 96.671875 250.878906 C 100.957031 249.527344 106.0625 246.675781 110.859375 243.265625 C 116.011719 239.613281 120.773438 235.328125 123.773438 231.59375 Z M 139.929688 188.808594 C 140.460938 189.71875 140.15625 190.882812 139.246094 191.414062 C 138.335938 191.945312 137.171875 191.640625 136.640625 190.734375 C 130 179.378906 101.679688 148.644531 91.519531 137.617188 L 89.351562 135.261719 C 88.644531 134.488281 88.695312 133.28125 89.464844 132.574219 C 90.242188 131.867188 91.449219 131.917969 92.15625 132.691406 L 94.320312 135.042969 C 104.554688 146.152344 133.089844 177.121094 139.925781 188.804688 Z M 124.277344 193.957031 C 125.070312 194.640625 125.152344 195.847656 124.464844 196.636719 C 123.78125 197.433594 122.574219 197.515625 121.785156 196.828125 L 117.960938 193.507812 C 109.695312 186.351562 93.457031 172.296875 92.03125 169.863281 C 91.5 168.953125 91.804688 167.789062 92.714844 167.257812 C 93.621094 166.722656 94.789062 167.03125 95.320312 167.9375 C 96.433594 169.84375 112.347656 183.621094 120.453125 190.636719 Z M 116.265625 205.636719 C 117.242188 206.015625 117.730469 207.117188 117.351562 208.09375 C 116.972656 209.074219 115.871094 209.5625 114.890625 209.183594 C 113.859375 208.78125 102.054688 207.121094 90.34375 205.628906 C 79.167969 204.199219 68.160156 202.929688 66.78125 203.046875 C 63.617188 203.316406 62.507812 203.675781 61.71875 203.933594 C 59.886719 204.527344 59.285156 204.71875 50.214844 203.34375 L 49.304688 203.21875 C 48.265625 203.082031 47.535156 202.121094 47.675781 201.082031 C 47.8125 200.046875 48.773438 199.3125 49.8125 199.457031 L 50.777344 199.582031 C 58.972656 200.820312 59.359375 200.699219 60.539062 200.3125 C 61.511719 199.996094 62.863281 199.558594 66.457031 199.253906 C 68.082031 199.113281 79.414062 200.402344 90.828125 201.859375 C 102.789062 203.382812 114.972656 205.132812 116.265625 205.632812 Z M 118.019531 219.707031 C 118.925781 219.175781 120.09375 219.480469 120.625 220.390625 C 121.15625 221.300781 120.851562 222.464844 119.941406 223 C 115.046875 225.863281 110.953125 227.261719 106.863281 228.664062 C 103.953125 229.660156 101.035156 230.65625 97.777344 232.25 C 97.285156 232.496094 96.5 232.820312 95.632812 233.1875 C 93.417969 234.125 90.488281 235.359375 89.707031 236.382812 C 89.066406 237.210938 87.867188 237.371094 87.039062 236.726562 C 86.207031 236.085938 86.050781 234.886719 86.691406 234.054688 C 88.070312 232.257812 91.535156 230.792969 94.144531 229.691406 C 94.878906 229.382812 95.539062 229.105469 96.085938 228.835938 C 99.476562 227.175781 102.554688 226.128906 105.621094 225.074219 C 109.496094 223.753906 113.367188 222.425781 118.011719 219.707031 Z M 118.019531 219.707031 " fill-opacity="1" fill-rule="nonzero"/></g></g></g><g clip-path="url(#3657073c68)"><g clip-path="url(#6d67396c27)"><g clip-path="url(#bb23a96434)"><g clip-path="url(#2c87e6bc7c)"><path fill="#000000" d="M 124.105469 230.183594 C 124.765625 229.363281 125.964844 229.230469 126.78125 229.890625 C 127.597656 230.550781 127.730469 231.75 127.074219 232.566406 C 123.878906 236.542969 118.832031 241.09375 113.390625 244.960938 C 108.324219 248.566406 102.855469 251.613281 98.152344 253.089844 C 95.972656 253.78125 94.070312 254.34375 92.539062 254.800781 C 86.992188 256.457031 86.695312 256.542969 78.097656 261.570312 C 77.191406 262.101562 76.023438 261.796875 75.492188 260.886719 C 74.960938 259.980469 75.265625 258.8125 76.175781 258.28125 C 85.109375 253.054688 85.433594 252.957031 91.445312 251.164062 C 92.800781 250.757812 94.484375 250.257812 97.003906 249.46875 C 101.292969 248.117188 106.394531 245.265625 111.191406 241.855469 C 116.34375 238.203125 121.105469 233.917969 124.105469 230.183594 Z M 140.261719 187.398438 C 140.792969 188.308594 140.488281 189.472656 139.578125 190.003906 C 138.671875 190.535156 137.503906 190.230469 136.972656 189.320312 C 130.332031 177.96875 102.011719 147.234375 91.851562 136.207031 L 89.6875 133.851562 C 88.976562 133.078125 89.027344 131.871094 89.800781 131.164062 C 90.574219 130.453125 91.78125 130.507812 92.488281 131.277344 L 94.65625 133.632812 C 104.886719 144.742188 133.425781 175.710938 140.261719 187.394531 Z M 124.609375 192.542969 C 125.402344 193.230469 125.488281 194.4375 124.800781 195.226562 C 124.113281 196.019531 122.90625 196.105469 122.117188 195.417969 L 118.292969 192.097656 C 110.027344 184.941406 93.789062 170.882812 92.363281 168.453125 C 91.832031 167.542969 92.136719 166.375 93.046875 165.84375 C 93.957031 165.3125 95.121094 165.617188 95.652344 166.527344 C 96.765625 168.433594 112.679688 182.207031 120.785156 189.222656 Z M 116.597656 204.226562 C 117.574219 204.605469 118.0625 205.707031 117.683594 206.683594 C 117.304688 207.664062 116.203125 208.148438 115.222656 207.769531 C 114.191406 207.371094 102.390625 205.710938 90.675781 204.21875 C 79.5 202.789062 68.492188 201.519531 67.113281 201.636719 C 63.949219 201.90625 62.839844 202.261719 62.050781 202.523438 C 60.222656 203.117188 59.617188 203.304688 50.546875 201.933594 L 49.636719 201.808594 C 48.601562 201.671875 47.867188 200.710938 48.007812 199.671875 C 48.144531 198.636719 49.105469 197.902344 50.144531 198.042969 L 51.109375 198.171875 C 59.304688 199.410156 59.691406 199.289062 60.875 198.902344 C 61.84375 198.585938 63.195312 198.148438 66.789062 197.839844 C 68.414062 197.703125 79.75 198.988281 91.160156 200.449219 C 103.121094 201.972656 115.308594 203.71875 116.597656 204.21875 Z M 118.351562 218.296875 C 119.261719 217.765625 120.425781 218.070312 120.957031 218.980469 C 121.488281 219.890625 121.183594 221.054688 120.273438 221.585938 C 115.378906 224.453125 111.285156 225.851562 107.195312 227.253906 C 104.289062 228.246094 101.371094 229.246094 98.109375 230.839844 C 97.617188 231.082031 96.835938 231.410156 95.964844 231.777344 C 93.753906 232.714844 90.824219 233.949219 90.042969 234.96875 C 89.398438 235.800781 88.199219 235.957031 87.371094 235.316406 C 86.542969 234.671875 86.382812 233.476562 87.023438 232.644531 C 88.402344 230.847656 91.871094 229.382812 94.480469 228.28125 C 95.210938 227.972656 95.871094 227.695312 96.421875 227.425781 C 99.808594 225.765625 102.886719 224.71875 105.953125 223.664062 C 109.828125 222.339844 113.703125 221.011719 118.34375 218.296875 Z M 118.351562 218.296875 " fill-opacity="1" fill-rule="nonzero"/></g></g></g></g><g clip-path="url(#cf0610ce05)"><g clip-path="url(#d827334eca)"><g clip-path="url(#1d6b08de40)"><path fill="#ca794c" d="M 251.378906 214.714844 C 247.496094 211.078125 241.824219 209.691406 239.613281 209.277344 C 237.890625 208.957031 235.886719 208.839844 234.238281 209.503906 C 230.820312 210.894531 228.050781 214.5625 231.347656 218.375 C 234.558594 222.085938 237.285156 219.777344 242.914062 219.910156 C 246.265625 219.984375 248.285156 221.789062 251.078125 221.628906 C 253.792969 221.476562 255.246094 218.335938 251.378906 214.714844 Z M 251.378906 214.714844 " fill-opacity="1" fill-rule="evenodd"/></g></g></g><g clip-path="url(#1f6906429d)"><g clip-path="url(#405f47ef05)"><g clip-path="url(#029008fe1e)"><path fill="#737373" d="M 246.644531 203.945312 C 245.621094 204.167969 244.601562 203.515625 244.378906 202.492188 C 244.160156 201.464844 244.808594 200.449219 245.832031 200.226562 C 250.816406 199.136719 257.601562 198.761719 264.265625 199.171875 C 270.472656 199.542969 276.644531 200.609375 281.226562 202.410156 C 283.359375 203.242188 285.191406 204 286.671875 204.605469 C 292.027344 206.800781 292.316406 206.917969 302.160156 208.402344 C 303.203125 208.558594 303.917969 209.53125 303.761719 210.570312 C 303.605469 211.613281 302.636719 212.328125 301.59375 212.171875 C 291.355469 210.628906 291.042969 210.503906 285.238281 208.125 C 283.929688 207.585938 282.304688 206.921875 279.847656 205.953125 C 275.664062 204.3125 269.902344 203.328125 264.027344 202.96875 C 257.722656 202.574219 251.324219 202.921875 246.644531 203.945312 Z M 207.207031 227.097656 C 207.363281 226.054688 208.332031 225.339844 209.375 225.496094 C 210.414062 225.65625 211.128906 226.625 210.972656 227.664062 C 209.015625 240.671875 211.757812 282.375 212.738281 297.335938 L 212.945312 300.527344 C 213.011719 301.578125 212.214844 302.484375 211.167969 302.550781 C 210.121094 302.613281 209.214844 301.816406 209.148438 300.773438 L 208.941406 297.578125 C 207.953125 282.507812 205.1875 240.488281 207.207031 227.101562 Z M 222.621094 232.921875 C 222.433594 231.886719 223.125 230.898438 224.15625 230.714844 C 225.1875 230.527344 226.179688 231.21875 226.363281 232.25 L 227.253906 237.234375 C 229.195312 247.992188 233.007812 269.132812 232.585938 271.917969 C 232.429688 272.960938 231.460938 273.675781 230.417969 273.519531 C 229.378906 273.363281 228.664062 272.394531 228.820312 271.351562 C 229.148438 269.167969 225.414062 248.453125 223.511719 237.90625 Z M 236.191406 228.859375 C 235.667969 227.949219 235.980469 226.785156 236.890625 226.265625 C 237.796875 225.742188 238.960938 226.054688 239.488281 226.964844 C 240.039062 227.925781 248.183594 236.625 256.363281 245.144531 C 264.160156 253.273438 271.929688 261.171875 273.078125 261.949219 C 275.710938 263.726562 276.796875 264.140625 277.574219 264.4375 C 279.371094 265.121094 279.957031 265.355469 286.15625 272.117188 L 286.785156 272.785156 C 287.507812 273.546875 287.476562 274.753906 286.710938 275.472656 C 285.953125 276.191406 284.746094 276.160156 284.027344 275.398438 L 283.359375 274.695312 C 277.757812 268.585938 277.378906 268.433594 276.214844 267.992188 C 275.261719 267.632812 273.9375 267.125 270.945312 265.105469 C 269.59375 264.191406 261.582031 256.074219 253.617188 247.773438 C 245.265625 239.074219 236.878906 230.0625 236.1875 228.863281 Z M 243.660156 216.808594 C 242.621094 216.652344 241.90625 215.679688 242.0625 214.640625 C 242.21875 213.597656 243.1875 212.882812 244.230469 213.039062 C 249.839844 213.882812 253.902344 215.367188 257.96875 216.84375 C 260.855469 217.894531 263.753906 218.949219 267.292969 219.753906 C 267.828125 219.875 268.640625 220.113281 269.546875 220.371094 C 271.859375 221.03125 274.914062 221.910156 276.164062 221.609375 C 277.183594 221.367188 278.214844 221.992188 278.457031 223.015625 C 278.699219 224.035156 278.074219 225.070312 277.050781 225.3125 C 274.847656 225.84375 271.234375 224.808594 268.507812 224.027344 C 267.746094 223.808594 267.058594 223.609375 266.460938 223.472656 C 262.78125 222.636719 259.726562 221.519531 256.679688 220.414062 C 252.835938 219.011719 248.984375 217.613281 243.664062 216.8125 Z M 243.660156 216.808594 " fill-opacity="1" fill-rule="nonzero"/></g></g></g><g clip-path="url(#3faed0e129)"><g clip-path="url(#0fd137342e)"><g clip-path="url(#c654ea85bd)"><g clip-path="url(#a02225319b)"><path fill="#000000" d="M 245.5 204.832031 C 244.476562 205.054688 243.457031 204.40625 243.234375 203.378906 C 243.011719 202.355469 243.664062 201.335938 244.6875 201.113281 C 249.667969 200.027344 256.453125 199.652344 263.117188 200.058594 C 269.324219 200.433594 275.5 201.496094 280.082031 203.300781 C 282.214844 204.132812 284.046875 204.890625 285.527344 205.492188 C 290.882812 207.6875 291.167969 207.808594 301.015625 209.292969 C 302.058594 209.449219 302.773438 210.417969 302.617188 211.460938 C 302.457031 212.503906 301.488281 213.21875 300.449219 213.0625 C 290.210938 211.519531 289.898438 211.390625 284.09375 209.011719 C 282.78125 208.476562 281.160156 207.808594 278.703125 206.84375 C 274.515625 205.199219 268.753906 204.21875 262.878906 203.859375 C 256.578125 203.464844 250.179688 203.8125 245.5 204.832031 Z M 206.0625 227.988281 C 206.21875 226.945312 207.1875 226.230469 208.230469 226.386719 C 209.269531 226.542969 209.984375 227.511719 209.828125 228.554688 C 207.867188 241.5625 210.609375 283.261719 211.59375 298.226562 L 211.800781 301.417969 C 211.867188 302.464844 211.070312 303.375 210.023438 303.4375 C 208.976562 303.503906 208.070312 302.707031 208.003906 301.660156 L 207.796875 298.46875 C 206.808594 283.398438 204.042969 241.378906 206.0625 227.992188 Z M 221.476562 233.808594 C 221.289062 232.777344 221.980469 231.785156 223.011719 231.601562 C 224.042969 231.414062 225.035156 232.105469 225.21875 233.140625 L 226.109375 238.125 C 228.046875 248.882812 231.863281 270.019531 231.441406 272.808594 C 231.285156 273.851562 230.316406 274.566406 229.273438 274.410156 C 228.234375 274.25 227.519531 273.28125 227.675781 272.242188 C 228.003906 270.058594 224.269531 249.34375 222.367188 238.792969 Z M 235.042969 229.75 C 234.523438 228.839844 234.835938 227.675781 235.742188 227.15625 C 236.652344 226.628906 237.816406 226.945312 238.339844 227.855469 C 238.890625 228.8125 247.035156 237.515625 255.214844 246.03125 C 263.015625 254.160156 270.785156 262.058594 271.933594 262.835938 C 274.5625 264.613281 275.652344 265.03125 276.429688 265.324219 C 278.226562 266.011719 278.8125 266.242188 285.011719 273.007812 L 285.640625 273.675781 C 286.363281 274.433594 286.328125 275.640625 285.566406 276.363281 C 284.808594 277.082031 283.601562 277.050781 282.882812 276.289062 L 282.210938 275.582031 C 276.613281 269.472656 276.234375 269.324219 275.070312 268.882812 C 274.117188 268.519531 272.789062 268.011719 269.800781 265.992188 C 268.449219 265.082031 260.4375 256.960938 252.46875 248.660156 C 244.117188 239.964844 235.734375 230.953125 235.039062 229.753906 Z M 242.515625 217.695312 C 241.476562 217.539062 240.761719 216.570312 240.917969 215.527344 C 241.074219 214.488281 242.042969 213.769531 243.085938 213.929688 C 248.695312 214.773438 252.757812 216.253906 256.824219 217.734375 C 259.710938 218.78125 262.605469 219.839844 266.144531 220.644531 C 266.683594 220.765625 267.496094 221.003906 268.402344 221.261719 C 270.714844 221.921875 273.769531 222.800781 275.019531 222.496094 C 276.039062 222.253906 277.070312 222.882812 277.3125 223.90625 C 277.554688 224.925781 276.925781 225.957031 275.90625 226.199219 C 273.703125 226.734375 270.085938 225.695312 267.363281 224.917969 C 266.601562 224.699219 265.910156 224.5 265.316406 224.363281 C 261.636719 223.527344 258.582031 222.410156 255.535156 221.304688 C 251.6875 219.902344 247.839844 218.503906 242.519531 217.699219 Z M 242.515625 217.695312 " fill-opacity="1" fill-rule="nonzero"/></g></g></g></g><g clip-path="url(#ebf11141ed)"><g clip-path="url(#8c5abad094)"><g clip-path="url(#481ac0faa6)"><path fill="#ca794c" d="M 257.628906 197.929688 C 253.328125 194.675781 247.402344 193.828125 245.097656 193.625 C 243.308594 193.472656 241.246094 193.542969 239.621094 194.363281 C 236.25 196.070312 233.742188 199.984375 237.457031 203.46875 C 241.078125 206.863281 243.65625 204.304688 249.429688 203.90625 C 252.867188 203.664062 255.09375 205.265625 257.941406 204.847656 C 260.703125 204.4375 261.910156 201.171875 257.628906 197.929688 Z M 257.628906 197.929688 " fill-opacity="1" fill-rule="evenodd"/></g></g></g><g clip-path="url(#6bb1b94062)"><g clip-path="url(#a8e75451c6)"><g clip-path="url(#daca0af805)"><path fill="#737373" d="M 250.851562 187.574219 C 249.933594 188.019531 248.816406 187.636719 248.371094 186.710938 C 247.925781 185.78125 248.308594 184.664062 249.230469 184.21875 C 253.707031 182.039062 260.058594 180.125 266.472656 178.984375 C 272.445312 177.917969 278.542969 177.515625 283.304688 178.183594 C 285.519531 178.484375 287.429688 178.785156 288.972656 179.023438 C 294.554688 179.886719 294.855469 179.933594 304.535156 179.089844 C 305.558594 179 306.460938 179.757812 306.550781 180.785156 C 306.640625 181.816406 305.882812 182.71875 304.859375 182.808594 C 294.796875 183.6875 294.472656 183.636719 288.417969 182.703125 C 287.054688 182.492188 285.359375 182.230469 282.808594 181.871094 C 278.460938 181.269531 272.769531 181.652344 267.117188 182.660156 C 261.046875 183.726562 255.058594 185.527344 250.851562 187.574219 Z M 218.746094 218.671875 C 218.65625 217.644531 219.414062 216.738281 220.4375 216.648438 C 221.460938 216.5625 222.359375 217.320312 222.449219 218.347656 C 223.570312 231.1875 235.726562 270.277344 240.085938 284.300781 L 241.015625 287.296875 C 241.316406 288.277344 240.769531 289.324219 239.792969 289.628906 C 238.8125 289.929688 237.769531 289.378906 237.46875 288.398438 L 236.542969 285.402344 C 232.148438 271.277344 219.902344 231.886719 218.746094 218.675781 Z M 234.703125 220.683594 C 234.289062 219.742188 234.71875 218.636719 235.652344 218.226562 C 236.589844 217.8125 237.6875 218.246094 238.097656 219.183594 L 240.085938 223.726562 C 244.390625 233.53125 252.851562 252.789062 253.089844 255.539062 C 253.179688 256.570312 252.425781 257.472656 251.402344 257.5625 C 250.378906 257.652344 249.476562 256.890625 249.386719 255.863281 C 249.199219 253.710938 240.910156 234.835938 236.691406 225.226562 Z M 246.644531 213.703125 C 245.941406 212.957031 245.96875 211.777344 246.710938 211.070312 C 247.453125 210.363281 248.628906 210.394531 249.335938 211.140625 C 250.078125 211.929688 259.796875 218.347656 269.507812 224.585938 C 278.769531 230.539062 287.949219 236.28125 289.214844 236.757812 C 292.117188 237.847656 293.246094 237.996094 294.050781 238.097656 C 295.910156 238.339844 296.523438 238.421875 303.949219 243.445312 L 304.703125 243.9375 C 305.558594 244.496094 305.804688 245.652344 305.246094 246.511719 C 304.691406 247.371094 303.539062 247.617188 302.683594 247.058594 L 301.886719 246.539062 C 295.171875 242.003906 294.78125 241.949219 293.578125 241.796875 C 292.589844 241.667969 291.214844 241.492188 287.914062 240.253906 C 286.425781 239.695312 276.964844 233.796875 267.507812 227.71875 C 257.589844 221.351562 247.570312 214.691406 246.640625 213.707031 Z M 250.96875 200.507812 C 249.945312 200.597656 249.046875 199.839844 248.957031 198.8125 C 248.867188 197.78125 249.621094 196.878906 250.644531 196.789062 C 256.160156 196.308594 260.355469 196.789062 264.546875 197.261719 C 267.527344 197.601562 270.519531 197.941406 274.058594 197.898438 C 274.59375 197.890625 275.421875 197.929688 276.339844 197.96875 C 278.683594 198.066406 281.785156 198.203125 282.898438 197.628906 C 283.8125 197.164062 284.933594 197.523438 285.398438 198.441406 C 285.863281 199.359375 285.503906 200.488281 284.589844 200.953125 C 282.625 201.964844 278.957031 201.804688 276.191406 201.6875 C 275.417969 201.65625 274.71875 201.621094 274.125 201.628906 C 270.441406 201.679688 267.289062 201.3125 264.144531 200.960938 C 260.175781 200.507812 256.203125 200.054688 250.972656 200.511719 Z M 250.96875 200.507812 " fill-opacity="1" fill-rule="nonzero"/></g></g></g><g clip-path="url(#effde6e916)"><g clip-path="url(#c25836d615)"><g clip-path="url(#53985b6ce3)"><g clip-path="url(#42cf4e1b05)"><path fill="#000000" d="M 250.644531 188.449219 C 249.726562 188.90625 248.609375 188.535156 248.152344 187.613281 C 247.699219 186.691406 248.066406 185.570312 248.984375 185.113281 C 253.4375 182.886719 259.765625 180.90625 266.167969 179.695312 C 272.132812 178.566406 278.226562 178.097656 282.992188 178.710938 C 285.210938 178.992188 287.125 179.273438 288.667969 179.492188 C 294.261719 180.292969 294.5625 180.339844 304.230469 179.390625 C 305.253906 179.289062 306.164062 180.039062 306.265625 181.066406 C 306.363281 182.09375 305.617188 183.007812 304.597656 183.109375 C 294.542969 184.09375 294.214844 184.046875 288.15625 183.179688 C 286.785156 182.984375 285.09375 182.738281 282.535156 182.40625 C 278.183594 181.851562 272.496094 182.296875 266.851562 183.363281 C 260.792969 184.496094 254.828125 186.359375 250.644531 188.449219 Z M 218.871094 219.890625 C 218.773438 218.863281 219.515625 217.953125 220.539062 217.851562 C 221.5625 217.75 222.472656 218.5 222.574219 219.527344 C 223.832031 232.351562 236.402344 271.3125 240.914062 285.289062 L 241.875 288.273438 C 242.1875 289.253906 241.648438 290.304688 240.675781 290.617188 C 239.699219 290.929688 238.652344 290.390625 238.339844 289.414062 L 237.378906 286.429688 C 232.835938 272.351562 220.167969 233.09375 218.871094 219.894531 Z M 234.847656 221.730469 C 234.425781 220.792969 234.839844 219.6875 235.773438 219.265625 C 236.703125 218.839844 237.808594 219.261719 238.226562 220.195312 L 240.265625 224.71875 C 244.671875 234.472656 253.339844 253.640625 253.609375 256.390625 C 253.710938 257.417969 252.964844 258.328125 251.941406 258.429688 C 250.917969 258.53125 250.011719 257.78125 249.910156 256.753906 C 249.699219 254.601562 241.207031 235.816406 236.882812 226.253906 Z M 246.714844 214.625 C 246.003906 213.882812 246.019531 212.703125 246.753906 211.992188 C 247.488281 211.273438 248.664062 211.292969 249.378906 212.035156 C 250.128906 212.8125 259.917969 219.128906 269.695312 225.261719 C 279.015625 231.117188 288.257812 236.757812 289.527344 237.222656 C 292.445312 238.277344 293.570312 238.414062 294.378906 238.507812 C 296.242188 238.730469 296.855469 238.808594 304.335938 243.75 L 305.09375 244.234375 C 305.953125 244.78125 306.214844 245.9375 305.664062 246.804688 C 305.121094 247.667969 303.972656 247.929688 303.109375 247.375 L 302.304688 246.867188 C 295.542969 242.40625 295.152344 242.351562 293.945312 242.214844 C 292.957031 242.097656 291.578125 241.933594 288.265625 240.730469 C 286.769531 240.1875 277.246094 234.394531 267.726562 228.414062 C 257.742188 222.152344 247.652344 215.601562 246.710938 214.628906 Z M 250.898438 201.382812 C 249.875 201.484375 248.96875 200.734375 248.867188 199.707031 C 248.765625 198.679688 249.511719 197.769531 250.535156 197.667969 C 256.042969 197.128906 260.242188 197.5625 264.441406 197.992188 C 267.425781 198.300781 270.417969 198.609375 273.960938 198.527344 C 274.496094 198.511719 275.320312 198.542969 276.242188 198.570312 C 278.585938 198.644531 281.6875 198.75 282.796875 198.160156 C 283.703125 197.6875 284.832031 198.035156 285.304688 198.949219 C 285.777344 199.859375 285.429688 200.992188 284.523438 201.464844 C 282.566406 202.5 278.898438 202.382812 276.132812 202.292969 C 275.359375 202.269531 274.660156 202.242188 274.0625 202.257812 C 270.382812 202.34375 267.226562 202.015625 264.078125 201.695312 C 260.105469 201.28125 256.128906 200.875 250.902344 201.386719 Z M 250.898438 201.382812 " fill-opacity="1" fill-rule="nonzero"/></g></g></g></g><g clip-path="url(#33b8f99cba)"><path fill="#ca794c" d="M 259.046875 182.804688 C 255.023438 178.789062 248.953125 177.050781 246.578125 176.507812 C 244.734375 176.089844 242.566406 175.867188 240.753906 176.488281 C 236.984375 177.789062 233.804688 181.523438 237.1875 185.703125 C 240.480469 189.769531 243.542969 187.464844 249.628906 187.878906 C 253.253906 188.121094 255.347656 190.117188 258.378906 190.085938 C 261.324219 190.054688 263.050781 186.8125 259.046875 182.804688 Z M 259.046875 182.804688 " fill-opacity="1" fill-rule="evenodd"/></g><g clip-path="url(#e68c3f0c35)"><g clip-path="url(#af96c02c82)"><g clip-path="url(#fbfbf00c94)"><path fill="#737373" d="M 247.636719 172.875 C 246.875 173.5625 245.699219 173.503906 245.011719 172.738281 C 244.328125 171.972656 244.382812 170.792969 245.140625 170.105469 C 248.832031 166.765625 254.394531 163.152344 260.234375 160.265625 C 265.671875 157.574219 271.414062 155.484375 276.171875 154.792969 C 278.382812 154.464844 280.300781 154.21875 281.851562 154.015625 C 287.453125 153.285156 287.753906 153.246094 296.808594 149.730469 C 297.769531 149.359375 298.84375 149.835938 299.21875 150.796875 C 299.59375 151.761719 299.121094 152.839844 298.160156 153.210938 C 288.742188 156.867188 288.417969 156.910156 282.347656 157.703125 C 280.976562 157.882812 279.277344 158.101562 276.726562 158.472656 C 272.382812 159.109375 267.027344 161.066406 261.878906 163.613281 C 256.347656 166.335938 251.101562 169.734375 247.636719 172.875 Z M 225.5 211.707031 C 225.125 210.742188 225.597656 209.664062 226.554688 209.292969 C 227.511719 208.921875 228.589844 209.398438 228.964844 210.359375 C 233.625 222.375 256.21875 256.511719 264.324219 268.757812 L 266.050781 271.375 C 266.617188 272.234375 266.382812 273.394531 265.53125 273.957031 C 264.671875 274.519531 263.519531 274.28125 262.953125 273.425781 L 261.226562 270.808594 C 253.0625 258.472656 230.296875 224.074219 225.5 211.707031 Z M 241.378906 209.179688 C 240.71875 208.390625 240.824219 207.210938 241.605469 206.554688 C 242.390625 205.894531 243.566406 206.003906 244.222656 206.792969 L 247.398438 210.597656 C 254.273438 218.808594 267.773438 234.9375 268.773438 237.511719 C 269.148438 238.472656 268.675781 239.550781 267.71875 239.925781 C 266.757812 240.296875 265.683594 239.820312 265.308594 238.855469 C 264.527344 236.839844 251.296875 221.035156 244.558594 212.984375 Z M 250.894531 199.140625 C 250.011719 198.621094 249.710938 197.480469 250.226562 196.59375 C 250.742188 195.707031 251.878906 195.410156 252.765625 195.929688 C 253.699219 196.476562 264.824219 199.925781 275.890625 203.203125 C 286.445312 206.332031 296.863281 209.28125 298.210938 209.382812 C 301.304688 209.617188 302.425781 209.445312 303.230469 209.320312 C 305.082031 209.03125 305.695312 208.941406 314.230469 211.6875 L 315.089844 211.949219 C 316.066406 212.246094 316.625 213.289062 316.332031 214.269531 C 316.039062 215.25 315.003906 215.808594 314.023438 215.511719 L 313.113281 215.234375 C 305.398438 212.757812 305.007812 212.8125 303.808594 213.003906 C 302.824219 213.15625 301.453125 213.371094 297.941406 213.101562 C 296.355469 212.984375 285.621094 209.964844 274.84375 206.769531 C 263.542969 203.425781 252.0625 199.832031 250.894531 199.144531 Z M 251.363281 185.265625 C 250.40625 185.636719 249.328125 185.160156 248.953125 184.195312 C 248.582031 183.234375 249.054688 182.15625 250.011719 181.78125 C 255.171875 179.78125 259.332031 179.066406 263.492188 178.351562 C 266.449219 177.84375 269.414062 177.335938 272.804688 176.304688 C 273.316406 176.148438 274.121094 175.953125 275.015625 175.734375 C 277.292969 175.175781 280.304688 174.441406 281.214844 173.574219 C 281.964844 172.875 283.140625 172.910156 283.84375 173.660156 C 284.546875 174.410156 284.515625 175.59375 283.769531 176.296875 C 282.164062 177.816406 278.597656 178.691406 275.910156 179.347656 C 275.160156 179.53125 274.480469 179.695312 273.910156 179.871094 C 270.386719 180.945312 267.257812 181.476562 264.140625 182.015625 C 260.203125 182.6875 256.261719 183.367188 251.367188 185.265625 Z M 251.363281 185.265625 " fill-opacity="1" fill-rule="nonzero"/></g></g></g><g clip-path="url(#a5f0b23916)"><g clip-path="url(#1978c4cad7)"><g clip-path="url(#bf3ff92176)"><g clip-path="url(#c6bfc319e2)"><path fill="#000000" d="M 247.679688 173.777344 C 246.929688 174.472656 245.75 174.425781 245.054688 173.667969 C 244.359375 172.910156 244.402344 171.730469 245.15625 171.035156 C 248.808594 167.652344 254.332031 163.980469 260.140625 161.035156 C 265.550781 158.28125 271.269531 156.128906 276.023438 155.386719 C 278.226562 155.039062 280.144531 154.773438 281.691406 154.550781 C 287.285156 153.757812 287.582031 153.71875 296.605469 150.105469 C 297.558594 149.722656 298.640625 150.191406 299.023438 151.148438 C 299.40625 152.105469 298.945312 153.191406 297.992188 153.574219 C 288.613281 157.328125 288.289062 157.375 282.226562 158.234375 C 280.855469 158.429688 279.160156 158.664062 276.613281 159.0625 C 272.28125 159.746094 266.945312 161.761719 261.824219 164.363281 C 256.324219 167.144531 251.113281 170.597656 247.679688 173.777344 Z M 225.957031 212.839844 C 225.574219 211.882812 226.035156 210.796875 226.988281 210.417969 C 227.945312 210.035156 229.027344 210.5 229.410156 211.457031 C 234.199219 223.421875 257.15625 257.316406 265.394531 269.476562 L 267.148438 272.074219 C 267.722656 272.925781 267.5 274.085938 266.652344 274.660156 C 265.804688 275.230469 264.648438 275.003906 264.074219 274.15625 L 262.320312 271.558594 C 254.023438 259.308594 230.890625 225.15625 225.960938 212.84375 Z M 241.8125 210.144531 C 241.144531 209.363281 241.234375 208.183594 242.011719 207.519531 C 242.789062 206.851562 243.964844 206.945312 244.628906 207.726562 L 247.847656 211.5 C 254.804688 219.636719 268.480469 235.617188 269.507812 238.183594 C 269.894531 239.140625 269.433594 240.222656 268.476562 240.605469 C 267.523438 240.988281 266.441406 240.523438 266.058594 239.5625 C 265.253906 237.558594 251.855469 221.894531 245.03125 213.917969 Z M 251.21875 200.003906 C 250.332031 199.492188 250.015625 198.355469 250.523438 197.464844 C 251.027344 196.574219 252.164062 196.261719 253.054688 196.773438 C 253.996094 197.3125 265.15625 200.640625 276.257812 203.796875 C 286.84375 206.816406 297.292969 209.652344 298.644531 209.742188 C 301.738281 209.941406 302.859375 209.757812 303.660156 209.621094 C 305.511719 209.3125 306.121094 209.21875 314.683594 211.875 L 315.546875 212.125 C 316.527344 212.414062 317.097656 213.449219 316.8125 214.433594 C 316.53125 215.417969 315.5 215.988281 314.519531 215.699219 L 313.605469 215.433594 C 305.867188 213.039062 305.476562 213.097656 304.277344 213.300781 C 303.296875 213.464844 301.929688 213.691406 298.410156 213.460938 C 296.824219 213.359375 286.0625 210.457031 275.246094 207.378906 C 263.914062 204.152344 252.394531 200.683594 251.21875 200.011719 Z M 251.539062 186.125 C 250.585938 186.507812 249.503906 186.039062 249.121094 185.082031 C 248.734375 184.125 249.195312 183.039062 250.152344 182.65625 C 255.289062 180.597656 259.441406 179.84375 263.59375 179.082031 C 266.542969 178.542969 269.503906 178.003906 272.882812 176.9375 C 273.394531 176.773438 274.195312 176.570312 275.085938 176.34375 C 277.359375 175.757812 280.363281 174.992188 281.265625 174.117188 C 282.003906 173.40625 283.183594 173.429688 283.894531 174.171875 C 284.601562 174.917969 284.585938 176.097656 283.847656 176.808594 C 282.257812 178.347656 278.699219 179.257812 276.023438 179.945312 C 275.273438 180.136719 274.59375 180.308594 274.027344 180.488281 C 270.515625 181.601562 267.390625 182.167969 264.28125 182.738281 C 260.351562 183.453125 256.417969 184.175781 251.542969 186.125 Z M 251.539062 186.125 " fill-opacity="1" fill-rule="nonzero"/></g></g></g></g><g clip-path="url(#72538cea08)"><g clip-path="url(#4b0fafc9e0)"><g clip-path="url(#da51ed38f0)"><g clip-path="url(#cbf322e19a)"><path fill="#000000" d="M 162.722656 222.09375 C 165.792969 221.03125 169.191406 222.710938 170.269531 225.824219 C 170.5625 226.675781 171.320312 227.050781 172.15625 226.757812 C 172.996094 226.46875 173.355469 225.707031 173.0625 224.859375 C 172.476562 223.160156 171.375 221.792969 170.097656 220.808594 C 172.074219 218.382812 176.265625 214.234375 184.089844 211.527344 C 191.910156 208.820312 197.582031 209.394531 200.824219 210.175781 C 200.425781 211.742188 200.40625 213.492188 200.996094 215.191406 C 201.289062 216.042969 202.046875 216.414062 202.882812 216.125 C 203.722656 215.835938 204.082031 215.074219 203.789062 214.226562 C 202.710938 211.109375 204.34375 207.6875 207.414062 206.625 C 208.253906 206.335938 208.617188 205.574219 208.320312 204.726562 C 208.027344 203.875 207.273438 203.503906 206.433594 203.792969 C 204.480469 204.46875 202.910156 205.804688 201.90625 207.421875 C 198.613281 206.5 191.90625 205.648438 183.109375 208.695312 C 174.308594 211.738281 169.5625 216.554688 167.546875 219.3125 C 165.757812 218.664062 163.695312 218.582031 161.742188 219.261719 C 160.902344 219.550781 160.542969 220.3125 160.835938 221.160156 C 161.128906 222.011719 161.882812 222.382812 162.722656 222.09375 Z M 162.722656 222.09375 " fill-opacity="1" fill-rule="nonzero"/></g></g></g></g><g clip-path="url(#4a9001058d)"><g clip-path="url(#6b3e01b816)"><g clip-path="url(#738b98ad7e)"><path fill="#f2f2f2" d="M 185.898438 207.027344 C 185.902344 206.96875 185.917969 206.921875 185.929688 206.878906 Z M 185.898438 207.027344 C 184.746094 206.203125 183.40625 205.71875 181.996094 205.589844 C 182.207031 206.8125 182.734375 207.949219 183.566406 208.878906 C 183.738281 209.089844 183.972656 209.300781 184.246094 209.28125 C 184.425781 209.257812 184.605469 209.171875 184.71875 209.03125 C 185.304688 208.511719 185.707031 207.804688 185.898438 207.027344 Z M 184.597656 224.945312 L 184.492188 224.851562 C 183.28125 224.84375 182.085938 224.582031 180.980469 224.074219 C 181.632812 225.238281 182.65625 226.171875 183.855469 226.738281 C 184.496094 226.417969 184.804688 225.648438 184.597656 224.945312 Z M 201.410156 193.8125 C 200.8125 192.847656 199.992188 192.066406 199.03125 191.480469 C 199.199219 192.359375 199.429688 193.207031 199.746094 194.042969 C 199.832031 194.261719 199.933594 194.507812 200.164062 194.609375 C 200.332031 194.667969 200.511719 194.683594 200.671875 194.628906 C 201.132812 194.503906 201.519531 194.132812 201.636719 193.667969 Z M 216.261719 195.679688 C 216.210938 195.519531 216.113281 195.34375 215.925781 195.316406 C 215.738281 195.289062 215.617188 195.449219 215.542969 195.589844 L 214.34375 197.488281 C 214.195312 197.667969 214.125 197.878906 214.105469 198.121094 C 214.15625 199.050781 215.605469 199.015625 216.050781 198.519531 C 216.554688 197.925781 216.5 196.371094 216.261719 195.679688 Z M 216.261719 195.679688 " fill-opacity="1" fill-rule="nonzero"/></g></g></g><g clip-path="url(#27621b7b14)"><g clip-path="url(#331795da6e)"><g clip-path="url(#e1cd530980)"><path fill="#d57b49" d="M 240.898438 227.109375 L 232.480469 220.027344 C 230.808594 218.617188 229.105469 217.183594 227.769531 215.488281 C 225.636719 212.785156 224.46875 209.464844 224.519531 206.203125 C 224.535156 205.007812 224.710938 203.761719 224.285156 202.601562 C 224.015625 201.949219 223.640625 201.359375 223.171875 200.859375 C 221.023438 198.46875 217.46875 197.277344 214.363281 197.898438 C 212.992188 198.171875 211.613281 198.777344 210.222656 198.375 C 208.257812 197.796875 207.40625 195.542969 205.78125 194.316406 C 203.699219 192.753906 200.589844 193.164062 198.675781 194.683594 C 196.765625 196.199219 195.808594 198.535156 195.144531 200.84375 C 194.65625 202.515625 194.597656 205.363281 192.804688 204.785156 C 189.738281 203.8125 186.242188 204.996094 184.5625 207.4375 C 182.882812 209.875 183.046875 213.34375 184.800781 215.953125 C 185.703125 217.28125 187.019531 218.605469 186.820312 220.113281 C 186.652344 221.472656 185.292969 222.3125 184.414062 223.363281 C 182.484375 225.695312 183.023438 229.429688 185.152344 231.882812 C 187.265625 234.347656 190.597656 235.625 193.851562 235.976562 C 196.582031 236.253906 199.375 235.960938 202.027344 236.804688 C 205.976562 238.058594 213.117188 243.679688 213.601562 244.039062 C 218.199219 247.457031 235.199219 261.296875 240.417969 263.714844 C 249.519531 259.449219 256 251.472656 257.09375 241.726562 C 255.722656 240.070312 242.5625 228.503906 240.898438 227.109375 Z M 240.898438 227.109375 " fill-opacity="1" fill-rule="nonzero"/></g></g></g><g clip-path="url(#3fe378e53c)"><g clip-path="url(#cc31db6e82)"><g clip-path="url(#d54dee6d4f)"><path fill="#d57b49" d="M 207.519531 234.796875 C 205.625 235.0625 203.695312 233.871094 202.402344 232.421875 C 199.449219 229.109375 198.855469 224.433594 199.859375 220.421875 C 200.726562 216.984375 202.949219 213.648438 206.550781 212.691406 C 208.347656 212.214844 210.304688 212.375 212.203125 212.625 C 214.542969 212.914062 216.949219 213.355469 218.96875 214.609375 C 220.984375 215.847656 222.550781 218.082031 222.242188 220.246094 C 221.855469 222.949219 219.085938 224.398438 216.851562 225.617188 C 214.285156 227.027344 213.371094 228.347656 211.9375 230.816406 C 210.9375 232.566406 209.644531 234.5 207.519531 234.796875 Z M 197.035156 229.128906 C 197.507812 228.003906 196.75 226.691406 196.007812 225.613281 C 194.90625 223.996094 193.421875 222.171875 191.449219 222.230469 C 190.699219 222.253906 190 222.570312 189.363281 222.929688 C 188.523438 223.402344 187.722656 223.988281 187.234375 224.777344 C 186.132812 226.546875 187.351562 228.101562 188.4375 229.6875 C 189.167969 230.75 190.109375 231.84375 191.390625 232.15625 C 193.089844 232.558594 194.621094 231.449219 195.871094 230.417969 C 196.34375 230.074219 196.808594 229.679688 197.035156 229.128906 Z M 196.980469 215.039062 C 197.101562 214.648438 197.117188 214.234375 197.046875 213.835938 C 196.800781 212.117188 196.078125 210.496094 194.984375 209.164062 C 194.125 208.113281 192.953125 207.1875 191.597656 207.050781 C 189.375 206.832031 187.789062 208.71875 186.585938 210.414062 L 187.265625 209.855469 C 186.457031 210.65625 186.074219 211.847656 186.179688 213.011719 C 186.292969 214.367188 187.007812 215.667969 187.953125 216.738281 C 188.484375 217.339844 189.113281 217.882812 189.859375 218.191406 C 192.132812 219.109375 194.4375 217.542969 196.152344 216.042969 C 196.476562 215.742188 196.820312 215.4375 196.980469 215.039062 Z M 205.800781 209.496094 C 208.046875 208.328125 209.003906 205.453125 208.039062 203.070312 C 206.398438 199.039062 198.859375 197.144531 197.273438 201.710938 C 195.734375 206.15625 201.0625 211.992188 205.800781 209.496094 Z M 213.109375 205.800781 C 213.441406 206.589844 213.9375 207.304688 214.480469 207.992188 C 215.253906 208.992188 216.160156 210.03125 217.414062 210.320312 C 218.917969 210.65625 220.328125 209.804688 221.445312 208.871094 C 221.765625 208.632812 222.035156 208.328125 222.21875 207.976562 C 222.445312 207.429688 222.316406 206.792969 222.136719 206.203125 C 221.574219 204.359375 220.542969 202.53125 218.847656 201.417969 C 214.972656 198.875 211.511719 201.914062 213.109375 205.800781 Z M 213.109375 205.800781 " fill-opacity="1" fill-rule="nonzero"/></g></g></g><g clip-path="url(#e05549dad5)"><g clip-path="url(#54bbf1b53b)"><g clip-path="url(#a330c9608b)"><path fill="#f89e6b" d="M 239.007812 242.582031 C 236.34375 247.105469 231.6875 252.082031 226.328125 253.917969 C 225.390625 253.203125 224.464844 252.476562 223.550781 251.769531 C 223.664062 251.667969 223.765625 251.570312 223.878906 251.46875 C 227.199219 248.453125 230.515625 245.433594 233.828125 242.402344 C 235.300781 241.054688 236.789062 239.699219 237.96875 238.097656 C 239.628906 235.859375 240.632812 233.207031 242.015625 230.785156 C 242.359375 230.171875 242.730469 229.578125 243.140625 229.019531 C 243.773438 229.566406 244.496094 230.207031 245.261719 230.886719 C 243.332031 234.882812 241.234375 238.78125 239.007812 242.582031 Z M 220.824219 241.710938 C 218.585938 242.820312 215.992188 243.226562 213.628906 244.082031 C 214.648438 244.84375 216.246094 246.089844 218.207031 247.605469 C 221.488281 244.992188 224.285156 241.082031 227.402344 239.230469 C 225.023438 239 222.960938 240.660156 220.824219 241.710938 Z M 251.269531 240.128906 C 251.683594 239.574219 252.40625 238.824219 253.167969 237.972656 C 252.308594 237.191406 251.378906 236.359375 250.417969 235.5 C 249.804688 236.578125 249.335938 237.507812 249.117188 237.898438 C 248.042969 239.789062 247 241.695312 246.0625 243.65625 C 245.464844 244.894531 244.722656 248.394531 243.753906 249.246094 C 246.757812 246.652344 248.945312 243.316406 251.269531 240.128906 Z M 251.269531 240.128906 " fill-opacity="1" fill-rule="nonzero"/></g></g></g></svg>